<?xml version="1.0" encoding="UTF-8"?>
<!DOCTYPE svg PUBLIC "-//W3C//DTD SVG 1.1//EN" "http://www.w3.org/Graphics/SVG/1.1/DTD/svg11.dtd">
<svg xmlns="http://www.w3.org/2000/svg" version="1.1" width="1280px" height="720px" style="shape-rendering:geometricPrecision; text-rendering:geometricPrecision; image-rendering:optimizeQuality; fill-rule:evenodd; clip-rule:evenodd" xmlns:xlink="http://www.w3.org/1999/xlink">
<g><path style="opacity:0.004" fill="#fe00ff" d="M 758.5,118.5 C 759.525,118.897 759.692,119.563 759,120.5C 758.536,119.906 758.369,119.239 758.5,118.5 Z"/></g>
<g><path style="opacity:0.02" fill="#fe99cb" d="M 760.5,118.5 C 761.833,119.167 761.833,119.167 760.5,118.5 Z"/></g>
<g><path style="opacity:0.004" fill="#fefffe" d="M 756.5,119.5 C 757.833,120.167 757.833,120.167 756.5,119.5 Z"/></g>
<g><path style="opacity:0.047" fill="#e995e9" d="M 753.5,120.5 C 754.833,121.167 754.833,121.167 753.5,120.5 Z"/></g>
<g><path style="opacity:0.004" fill="#fefffe" d="M 748.5,121.5 C 749.833,122.167 749.833,122.167 748.5,121.5 Z"/></g>
<g><path style="opacity:0.11" fill="#ec9bec" d="M 750.5,121.5 C 751.833,122.167 751.833,122.167 750.5,121.5 Z"/></g>
<g><path style="opacity:0.004" fill="#fe00ff" d="M 745.5,122.5 C 746.833,123.167 746.833,123.167 745.5,122.5 Z"/></g>
<g><path style="opacity:0.129" fill="#ef9bef" d="M 740.5,123.5 C 741.833,124.167 741.833,124.167 740.5,123.5 Z"/></g>
<g><path style="opacity:0.004" fill="#fe00ff" d="M 736.5,124.5 C 737.833,125.167 737.833,125.167 736.5,124.5 Z"/></g>
<g><path style="opacity:0.122" fill="#ee9cee" d="M 738.5,124.5 C 739.833,125.167 739.833,125.167 738.5,124.5 Z"/></g>
<g><path style="opacity:0.016" fill="#ff6fff" d="M 763.5,124.5 C 765.332,125.14 765.665,126.14 764.5,127.5C 763.614,126.675 763.281,125.675 763.5,124.5 Z"/></g>
<g><path style="opacity:0.004" fill="#fe00ff" d="M 728.5,126.5 C 729.833,127.167 729.833,127.167 728.5,126.5 Z"/></g>
<g><path style="opacity:0.008" fill="#ff74ff" d="M 733.5,125.5 C 736.001,125.511 736.168,126.178 734,127.5C 733.536,126.906 733.369,126.239 733.5,125.5 Z"/></g>
<g><path style="opacity:0.055" fill="#ffa5f2" d="M 723.5,127.5 C 724.525,127.897 724.692,128.563 724,129.5C 723.536,128.906 723.369,128.239 723.5,127.5 Z"/></g>
<g><path style="opacity:0.004" fill="#ff2fff" d="M 721.5,128.5 C 722.525,128.897 722.692,129.563 722,130.5C 721.536,129.906 721.369,129.239 721.5,128.5 Z"/></g>
<g><path style="opacity:0.008" fill="#ff66ff" d="M 716.5,129.5 C 717.525,129.897 717.692,130.563 717,131.5C 716.536,130.906 716.369,130.239 716.5,129.5 Z"/></g>
<g><path style="opacity:0.027" fill="#ffb8ff" d="M 711.5,130.5 C 712.525,130.897 712.692,131.563 712,132.5C 711.536,131.906 711.369,131.239 711.5,130.5 Z"/></g>
<g><path style="opacity:0.024" fill="#ff86ff" d="M 705.5,133.5 C 705.897,132.475 706.563,132.308 707.5,133C 706.906,133.464 706.239,133.631 705.5,133.5 Z"/></g>
<g><path style="opacity:0.051" fill="#ff93ff" d="M 708.5,131.5 C 709.525,131.897 709.692,132.563 709,133.5C 708.536,132.906 708.369,132.239 708.5,131.5 Z"/></g>
<g><path style="opacity:0.024" fill="#ff66ff" d="M 762.5,133.5 C 762.897,132.475 763.563,132.308 764.5,133C 763.906,133.464 763.239,133.631 762.5,133.5 Z"/></g>
<g><path style="opacity:0.02" fill="#fe99ff" d="M 705.5,133.5 C 704.833,134.167 704.833,134.167 705.5,133.5 Z"/></g>
<g><path style="opacity:0.004" fill="#ff47ff" d="M 699.5,135.5 C 699.897,134.475 700.563,134.308 701.5,135C 700.906,135.464 700.239,135.631 699.5,135.5 Z"/></g>
<g><path style="opacity:0.012" fill="#ff86ff" d="M 693.5,136.5 C 693.897,135.475 694.563,135.308 695.5,136C 694.906,136.464 694.239,136.631 693.5,136.5 Z"/></g>
<g><path style="opacity:0.02" fill="#fe99ff" d="M 693.5,136.5 C 692.833,137.167 692.833,137.167 693.5,136.5 Z"/></g>
<g><path style="opacity:0.008" fill="#fe80ff" d="M 762.5,137.5 C 763.833,138.167 763.833,138.167 762.5,137.5 Z"/></g>
<g><path style="opacity:0.004" fill="#ff47ff" d="M 686.5,137.5 C 687.525,137.897 687.692,138.563 687,139.5C 686.536,138.906 686.369,138.239 686.5,137.5 Z"/></g>
<g><path style="opacity:0.008" fill="#8000ff" d="M 680.5,140.5 C 680.897,139.475 681.563,139.308 682.5,140C 681.906,140.464 681.239,140.631 680.5,140.5 Z"/></g>
<g><path style="opacity:0.004" fill="#ff9dff" d="M 674.5,140.5 C 676.355,140.272 677.188,140.939 677,142.5C 676.333,141.167 675.667,141.167 675,142.5C 674.536,141.906 674.369,141.239 674.5,140.5 Z"/></g>
<g><path style="opacity:0.118" fill="#edacec" d="M 762.5,139.5 C 763.573,140.251 763.74,141.251 763,142.5C 762.517,141.552 762.351,140.552 762.5,139.5 Z"/></g>
<g><path style="opacity:0.106" fill="#f5a1f5" d="M 669.5,142.5 C 670.833,143.167 670.833,143.167 669.5,142.5 Z"/></g>
<g><path style="opacity:0.008" fill="#a800a8" d="M 671.5,141.5 C 672.525,141.897 672.692,142.563 672,143.5C 671.536,142.906 671.369,142.239 671.5,141.5 Z"/></g>
<g><path style="opacity:0.004" fill="#fe00ff" d="M 667.5,143.5 C 668.833,144.167 668.833,144.167 667.5,143.5 Z"/></g>
<g><path style="opacity:0.075" fill="#f696f6" d="M 660.5,145.5 C 660.897,144.475 661.563,144.308 662.5,145C 661.906,145.464 661.239,145.631 660.5,145.5 Z"/></g>
<g><path style="opacity:0.02" fill="#ff92ff" d="M 656.5,145.5 C 659.001,145.511 659.168,146.178 657,147.5C 656.536,146.906 656.369,146.239 656.5,145.5 Z"/></g>
<g><path style="opacity:0.027" fill="#fe92ff" d="M 660.5,145.5 C 659.833,146.167 659.833,146.167 660.5,145.5 Z"/></g>
<g><path style="opacity:0.004" fill="#fe00ff" d="M 762.5,145.5 C 763.833,146.167 763.833,146.167 762.5,145.5 Z"/></g>
<g><path style="opacity:0.047" fill="#ec8dea" d="M 644.5,148.5 C 649.564,148.698 649.397,149.365 644,150.5C 643.5,150.333 643,150.167 642.5,150C 643.416,149.722 644.082,149.222 644.5,148.5 Z"/></g>
<g><path style="opacity:0.02" fill="#ff7aff" d="M 636.5,151.5 C 636.897,150.475 637.563,150.308 638.5,151C 637.906,151.464 637.239,151.631 636.5,151.5 Z"/></g>
<g><path style="opacity:0.958" fill="#e2af62" d="M 648.5,167.5 C 648.5,168.833 648.5,170.167 648.5,171.5C 647.675,174.372 646.841,177.372 646,180.5C 644.798,178.323 644.298,175.989 644.5,173.5C 646.054,169.433 646.72,165.1 646.5,160.5C 643.95,160.439 642.45,159.106 642,156.5C 639.31,159.249 637.144,162.249 635.5,165.5C 634.778,164.449 633.778,163.782 632.5,163.5C 631.475,163.103 631.308,162.437 632,161.5C 633.842,159.136 635.675,156.803 637.5,154.5C 640.217,151.723 643.383,151.057 647,152.5C 648.648,157.484 649.148,162.484 648.5,167.5 Z"/></g>
<g><path style="opacity:0.99" fill="#e6b35f" d="M 550.5,154.5 C 551.389,156.736 552.722,158.736 554.5,160.5C 553.675,162.7 552.342,163.034 550.5,161.5C 547.89,157.092 544.556,156.092 540.5,158.5C 538.556,164.72 538.556,171.054 540.5,177.5C 538.892,175.382 537.226,172.715 535.5,169.5C 533.938,163.658 534.438,157.992 537,152.5C 541.81,150.914 546.31,151.581 550.5,154.5 Z"/></g>
<g><path style="opacity:0.082" fill="#ef7eee" d="M 761.5,151.5 C 762.793,153.364 762.793,155.364 761.5,157.5C 760.769,155.599 760.769,153.599 761.5,151.5 Z"/></g>
<g><path style="opacity:1" fill="#b6642a" d="M 636.5,151.5 C 632.603,152.816 632.936,153.816 637.5,154.5C 635.675,156.803 633.842,159.136 632,161.5C 631.308,162.437 631.475,163.103 632.5,163.5C 632.611,164.117 632.944,164.617 633.5,165C 632.044,165.423 631.544,166.256 632,167.5C 639.23,173.138 643.063,180.305 643.5,189C 645.692,191.867 646.859,195.034 647,198.5C 646.189,197.04 645.355,196.707 644.5,197.5C 653.01,207.896 656.343,219.563 654.5,232.5C 653.665,237.19 652.499,242.524 651,248.5C 650.667,248.167 650.333,247.833 650,247.5C 649.333,248.833 648.667,250.167 648,251.5C 647.667,251.167 647.333,250.833 647,250.5C 644.955,251.887 642.788,253.054 640.5,254C 643,254.5 645.5,255 648,255.5C 649.89,255.215 651.223,254.215 652,252.5C 653.559,245.114 655.892,238.781 659,233.5C 659.333,228.833 659.667,224.167 660,219.5C 661.156,220.993 661.99,220.826 662.5,219C 663.501,215.331 664.501,211.664 665.5,208C 662.879,195.926 657.879,185.093 650.5,175.5C 650.34,173.847 649.674,172.514 648.5,171.5C 648.5,170.167 648.5,168.833 648.5,167.5C 657.809,179.366 664.143,192.699 667.5,207.5C 666,226.185 660.5,243.518 651,259.5C 649.581,260.46 648.081,261.293 646.5,262C 647.167,262.333 647.833,262.667 648.5,263C 646.19,263.497 643.857,263.663 641.5,263.5C 633.383,263.114 625.383,263.781 617.5,265.5C 617.527,262.61 618.693,261.61 621,262.5C 622.916,259.102 623.916,255.435 624,251.5C 624.216,253.384 624.883,255.051 626,256.5C 626.464,255.906 626.631,255.239 626.5,254.5C 627.652,255.625 628.652,255.625 629.5,254.5C 631.705,252.637 633.039,250.303 633.5,247.5C 634.434,246.432 634.768,245.099 634.5,243.5C 636.173,244.343 637.34,245.676 638,247.5C 638.608,245.846 639.108,244.179 639.5,242.5C 641.222,239.08 641.889,235.414 641.5,231.5C 643.61,232.453 644.777,234.119 645,236.5C 646.887,231.63 646.72,226.797 644.5,222C 644.667,221.5 644.833,221 645,220.5C 648.169,224.764 649.003,224.431 647.5,219.5C 647.5,218.5 647.5,217.5 647.5,216.5C 648.458,216.953 649.292,217.619 650,218.5C 650.483,217.552 650.649,216.552 650.5,215.5C 650.201,211.895 649.035,208.561 647,205.5C 643.333,201.167 639.667,196.833 636,192.5C 635.833,191 635.667,189.5 635.5,188C 638.453,184.172 637.786,180.839 633.5,178C 633.833,177.667 634.167,177.333 634.5,177C 631.43,173.651 628.264,170.484 625,167.5C 626.174,165.14 625.34,163.807 622.5,163.5C 623.171,162.153 623.171,160.986 622.5,160C 620.122,159.489 617.788,158.822 615.5,158C 616.672,157.581 617.672,156.915 618.5,156C 615.167,155.667 611.833,155.333 608.5,155C 609.696,154.346 609.696,153.846 608.5,153.5C 605.142,155.353 601.809,156.853 598.5,158C 599.833,156.667 601.167,155.333 602.5,154C 599.094,154.638 596.26,156.472 594,159.5C 593.581,155.148 592.914,154.815 592,158.5C 591.085,157.672 590.419,156.672 590,155.5C 589.667,156.167 589.333,156.833 589,157.5C 586.936,154.726 584.436,152.893 581.5,152C 582.743,153.154 583.743,154.488 584.5,156C 580.879,155.595 577.213,155.595 573.5,156C 575.779,156.473 577.779,157.473 579.5,159C 574.601,157.932 569.601,157.599 564.5,158C 566.996,159.08 569.33,160.414 571.5,162C 566.983,162.263 562.649,163.263 558.5,165C 560.973,165.22 562.64,166.386 563.5,168.5C 561.217,168.608 559.217,169.441 557.5,171C 558.5,171.333 559.5,171.667 560.5,172C 558.623,173.185 556.623,174.185 554.5,175C 551.742,178.066 549.409,181.399 547.5,185C 549.153,189.082 549.653,193.582 549,198.5C 545.274,203.228 541.941,208.228 539,213.5C 537.957,216.757 537.457,220.09 537.5,223.5C 537.343,224.873 537.51,226.207 538,227.5C 539.03,225.654 540.196,223.987 541.5,222.5C 541.069,229.991 541.569,237.657 543,245.5C 543.333,245.833 543.667,246.167 544,246.5C 544.875,243.117 545.875,239.784 547,236.5C 546.916,243.048 547.916,249.381 550,255.5C 550.333,253.5 550.667,251.5 551,249.5C 551.24,251.852 552.073,253.852 553.5,255.5C 553.369,256.376 553.702,257.043 554.5,257.5C 555.308,255.577 555.808,253.577 556,251.5C 558.158,257.152 560.324,262.819 562.5,268.5C 557.938,267.204 553.271,266.538 548.5,266.5C 547.5,265.833 546.5,265.167 545.5,264.5C 549.514,264.666 553.514,264.499 557.5,264C 549.435,259.607 543.935,253.107 541,244.5C 541.496,256.474 539.829,257.14 536,246.5C 535.667,247.5 535.333,248.5 535,249.5C 533.191,242.595 531.857,235.595 531,228.5C 529.837,230.285 529.17,232.285 529,234.5C 528.677,228.317 528.177,222.15 527.5,216C 527.784,212.929 528.784,210.095 530.5,207.5C 530.333,207.167 530.167,206.833 530,206.5C 528.426,207.984 527.093,209.651 526,211.5C 526.551,204.232 528.384,197.232 531.5,190.5C 531.333,190.167 531.167,189.833 531,189.5C 529.815,191.559 528.648,191.726 527.5,190C 528.029,188.441 528.696,186.941 529.5,185.5C 529.376,184.893 529.043,184.56 528.5,184.5C 528.751,182.83 529.418,181.33 530.5,180C 530.272,179.601 529.938,179.435 529.5,179.5C 531.5,176.167 533.5,172.833 535.5,169.5C 537.226,172.715 538.892,175.382 540.5,177.5C 541.459,174.861 542.626,172.194 544,169.5C 544.333,169.833 544.667,170.167 545,170.5C 545.333,169.5 545.667,168.5 546,167.5C 546.333,167.833 546.667,168.167 547,168.5C 547.605,166.519 548.605,166.185 550,167.5C 551.241,165.452 551.408,163.452 550.5,161.5C 552.342,163.034 553.675,162.7 554.5,160.5C 552.722,158.736 551.389,156.736 550.5,154.5C 556.407,149.773 562.741,145.606 569.5,142C 575.764,139.91 581.931,140.077 588,142.5C 588.667,141.833 588.667,141.167 588,140.5C 586.082,139.458 584.249,138.292 582.5,137C 583.833,136.833 585.167,136.667 586.5,136.5C 593.347,135.39 599.514,137.056 605,141.5C 605.202,139.744 605.702,138.078 606.5,136.5C 610.361,139.528 614.361,142.361 618.5,145C 622.737,146.452 626.737,148.452 630.5,151C 632.473,151.495 634.473,151.662 636.5,151.5 Z"/></g>
<g><path style="opacity:1" fill="#dfa958" d="M 566.5,144.5 C 566.855,146.06 568.855,146.893 572.5,147C 568.735,148.049 565.068,149.382 561.5,151C 560.167,151.667 560.167,152.333 561.5,153C 558.911,154.314 556.244,154.981 553.5,155C 557.903,151.481 562.237,147.981 566.5,144.5 Z"/></g>
<g><path style="opacity:1" fill="#e1ac5b" d="M 605.5,148.5 C 606.117,148.611 606.617,148.944 607,149.5C 608.092,146.956 608.759,144.289 609,141.5C 610.5,143 612,144.5 613.5,146C 620.732,147.116 627.065,150.116 632.5,155C 630.029,155.706 627.695,155.373 625.5,154C 625.833,153.667 626.167,153.333 626.5,153C 623.529,152.206 620.529,151.539 617.5,151C 618.902,149.658 618.569,148.824 616.5,148.5C 614.119,149.607 611.619,150.273 609,150.5C 607.319,150.392 606.152,149.725 605.5,148.5 Z"/></g>
<g><path style="opacity:0.998" fill="#dfa757" d="M 605.5,148.5 C 604.571,147.064 603.405,145.731 602,144.5C 600.729,147.433 599.062,150.099 597,152.5C 596.16,148.937 594.826,145.603 593,142.5C 592.64,144.608 591.973,146.608 591,148.5C 588.832,146.545 586.498,145.879 584,146.5C 581.827,144.17 579.327,143.837 576.5,145.5C 574.5,145 572.5,144.5 570.5,144C 576.983,143.021 583.316,143.521 589.5,145.5C 590.452,143.955 590.785,142.288 590.5,140.5C 594.408,141.239 596.908,143.572 598,147.5C 599.423,145.655 600.59,143.655 601.5,141.5C 604.547,142.875 605.88,145.208 605.5,148.5 Z"/></g>
<g><path style="opacity:1" fill="#945324" d="M 550.5,161.5 C 551.408,163.452 551.241,165.452 550,167.5C 548.605,166.185 547.605,166.519 547,168.5C 546.667,168.167 546.333,167.833 546,167.5C 545.667,168.5 545.333,169.5 545,170.5C 544.667,170.167 544.333,169.833 544,169.5C 542.626,172.194 541.459,174.861 540.5,177.5C 538.556,171.054 538.556,164.72 540.5,158.5C 544.556,156.092 547.89,157.092 550.5,161.5 Z"/></g>
<g><path style="opacity:1" fill="#955525" d="M 644.5,173.5 C 643.883,173.611 643.383,173.944 643,174.5C 641.37,173.28 640.37,171.28 640,168.5C 639.026,170.878 638.359,170.544 638,167.5C 635.841,169.956 635.008,169.29 635.5,165.5C 637.144,162.249 639.31,159.249 642,156.5C 642.45,159.106 643.95,160.439 646.5,160.5C 646.72,165.1 646.054,169.433 644.5,173.5 Z"/></g>
<g><path style="opacity:0.004" fill="#ff54ff" d="M 760.5,161.5 C 760.897,160.475 761.563,160.308 762.5,161C 761.906,161.464 761.239,161.631 760.5,161.5 Z"/></g>
<g><path style="opacity:0.004" fill="#fe00ff" d="M 760.5,162.5 C 761.833,163.167 761.833,163.167 760.5,162.5 Z"/></g>
<g><path style="opacity:1" fill="#d79e53" d="M 622.5,163.5 C 620.248,164.957 620.581,166.457 623.5,168C 620.308,168.242 617.642,167.075 615.5,164.5C 615.709,163.914 616.043,163.414 616.5,163C 613.211,162.118 609.877,161.452 606.5,161C 607.696,160.346 607.696,159.846 606.5,159.5C 603.689,160.776 601.522,162.776 600,165.5C 599.805,163.793 599.805,162.126 600,160.5C 597.597,162.305 595.93,164.638 595,167.5C 594.667,166.167 594.333,164.833 594,163.5C 593,166.167 592,166.167 591,163.5C 589.413,164.727 588.079,164.394 587,162.5C 585.382,162.889 584.215,164.222 583.5,166.5C 581.833,165.833 580.167,165.167 578.5,164.5C 577.904,165.716 577.737,167.049 578,168.5C 576.266,167.362 574.432,166.862 572.5,167C 573.167,167.667 573.833,168.333 574.5,169C 572.5,169.333 570.5,169.667 568.5,170C 569.328,170.915 570.328,171.581 571.5,172C 568.783,174.076 565.783,174.743 562.5,174C 564.246,173.529 565.913,172.862 567.5,172C 565.754,171.529 564.087,170.862 562.5,170C 563.167,169.667 563.833,169.333 564.5,169C 564.272,168.601 563.938,168.435 563.5,168.5C 562.64,166.386 560.973,165.22 558.5,165C 562.649,163.263 566.983,162.263 571.5,162C 569.33,160.414 566.996,159.08 564.5,158C 569.601,157.599 574.601,157.932 579.5,159C 577.779,157.473 575.779,156.473 573.5,156C 577.213,155.595 580.879,155.595 584.5,156C 583.743,154.488 582.743,153.154 581.5,152C 584.436,152.893 586.936,154.726 589,157.5C 589.333,156.833 589.667,156.167 590,155.5C 590.419,156.672 591.085,157.672 592,158.5C 592.914,154.815 593.581,155.148 594,159.5C 596.26,156.472 599.094,154.638 602.5,154C 601.167,155.333 599.833,156.667 598.5,158C 601.809,156.853 605.142,155.353 608.5,153.5C 609.696,153.846 609.696,154.346 608.5,155C 611.833,155.333 615.167,155.667 618.5,156C 617.672,156.915 616.672,157.581 615.5,158C 617.788,158.822 620.122,159.489 622.5,160C 623.171,160.986 623.171,162.153 622.5,163.5 Z"/></g>
<g><path style="opacity:0.059" fill="#f987f9" d="M 760.5,167.5 C 761.621,169.089 761.454,170.756 760,172.5C 759.616,170.803 759.782,169.137 760.5,167.5 Z"/></g>
<g><path style="opacity:1" fill="#c86d2a" d="M 632.5,163.5 C 633.778,163.782 634.778,164.449 635.5,165.5C 635.008,169.29 635.841,169.956 638,167.5C 638.359,170.544 639.026,170.878 640,168.5C 640.37,171.28 641.37,173.28 643,174.5C 643.383,173.944 643.883,173.611 644.5,173.5C 644.298,175.989 644.798,178.323 646,180.5C 646.841,177.372 647.675,174.372 648.5,171.5C 649.674,172.514 650.34,173.847 650.5,175.5C 653.638,182.448 656.805,189.448 660,196.5C 661.405,200.072 661.738,203.739 661,207.5C 660,204.833 659,202.167 658,199.5C 657.936,211.107 657.603,222.774 657,234.5C 656.667,235.167 656.333,235.833 656,236.5C 655.209,235.255 654.709,233.922 654.5,232.5C 656.343,219.563 653.01,207.896 644.5,197.5C 645.355,196.707 646.189,197.04 647,198.5C 646.859,195.034 645.692,191.867 643.5,189C 643.063,180.305 639.23,173.138 632,167.5C 631.544,166.256 632.044,165.423 633.5,165C 632.944,164.617 632.611,164.117 632.5,163.5 Z"/></g>
<g><path style="opacity:0.086" fill="#f6a3f6" d="M 759.5,175.5 C 760.573,176.251 760.74,177.251 760,178.5C 759.517,177.552 759.351,176.552 759.5,175.5 Z"/></g>
<g><path style="opacity:0.016" fill="#ff66ff" d="M 522.5,181.5 C 522.897,180.475 523.563,180.308 524.5,181C 523.906,181.464 523.239,181.631 522.5,181.5 Z"/></g>
<g><path style="opacity:0.016" fill="#ca65c9" d="M 517.5,181.5 C 519.934,182.354 519.767,183.354 517,184.5C 516.53,183.423 516.697,182.423 517.5,181.5 Z"/></g>
<g><path style="opacity:0.027" fill="#fe92ff" d="M 512.5,183.5 C 513.833,184.167 513.833,184.167 512.5,183.5 Z"/></g>
<g><path style="opacity:0.012" fill="#d68bd4" d="M 508.5,184.5 C 511.001,184.511 511.168,185.178 509,186.5C 508.536,185.906 508.369,185.239 508.5,184.5 Z"/></g>
<g><path style="opacity:0.004" fill="#ff28ff" d="M 502.5,185.5 C 505.001,185.511 505.168,186.178 503,187.5C 502.536,186.906 502.369,186.239 502.5,185.5 Z"/></g>
<g><path style="opacity:0.004" fill="#ff2fff" d="M 505.5,186.5 C 505.897,185.475 506.563,185.308 507.5,186C 506.906,186.464 506.239,186.631 505.5,186.5 Z"/></g>
<g><path style="opacity:0.031" fill="#ff8efe" d="M 758.5,181.5 C 759.622,183.288 759.789,185.288 759,187.5C 758.505,185.527 758.338,183.527 758.5,181.5 Z"/></g>
<g><path style="opacity:0.004" fill="#ff5cff" d="M 492.5,188.5 C 493.525,188.897 493.692,189.563 493,190.5C 492.536,189.906 492.369,189.239 492.5,188.5 Z"/></g>
<g><path style="opacity:0.012" fill="#ff9dff" d="M 757.5,191.5 C 760.001,191.511 760.168,192.178 758,193.5C 757.536,192.906 757.369,192.239 757.5,191.5 Z"/></g>
<g><path style="opacity:0.031" fill="#ffc0ff" d="M 489.5,194.5 C 489.897,193.475 490.563,193.308 491.5,194C 490.906,194.464 490.239,194.631 489.5,194.5 Z"/></g>
<g><path style="opacity:0.027" fill="#fc7ffb" d="M 490.5,196.5 C 493.001,196.511 493.168,197.178 491,198.5C 490.536,197.906 490.369,197.239 490.5,196.5 Z"/></g>
<g><path style="opacity:0.035" fill="#f2b1f1" d="M 756.5,197.5 C 757.077,196.227 757.743,196.227 758.5,197.5C 758.03,198.463 757.363,198.463 756.5,197.5 Z"/></g>
<g><path style="opacity:0.004" fill="#fe00ff" d="M 757.5,202.5 C 758.833,203.167 758.833,203.167 757.5,202.5 Z"/></g>
<g><path style="opacity:1" fill="#ecc786" d="M 631.5,202.5 C 635.07,203.057 638.403,204.224 641.5,206C 640.833,206.333 640.167,206.667 639.5,207C 641.221,208.527 643.221,209.527 645.5,210C 646.762,212.276 648.429,214.109 650.5,215.5C 650.649,216.552 650.483,217.552 650,218.5C 649.292,217.619 648.458,216.953 647.5,216.5C 646.545,213.544 644.545,211.544 641.5,210.5C 641.167,211.167 640.833,211.833 640.5,212.5C 634.387,209.438 633.553,210.104 638,214.5C 638.667,215.167 638.667,215.833 638,216.5C 636.184,214.559 634.184,213.892 632,214.5C 624.785,211.311 617.951,209.311 611.5,208.5C 613.415,208.784 615.081,208.451 616.5,207.5C 621.179,207.666 625.845,207.499 630.5,207C 630.167,206.667 629.833,206.333 629.5,206C 631.939,205.467 632.605,204.3 631.5,202.5 Z"/></g>
<g><path style="opacity:0.008" fill="#7f807f" d="M 491.5,206.5 C 492.833,207.167 492.833,207.167 491.5,206.5 Z"/></g>
<g><path style="opacity:0.063" fill="#f386f2" d="M 756.5,205.5 C 759.001,205.511 759.168,206.178 757,207.5C 756.536,206.906 756.369,206.239 756.5,205.5 Z"/></g>
<g><path style="opacity:0.031" fill="#f69df6" d="M 492.5,209.5 C 493.525,209.897 493.692,210.563 493,211.5C 492.536,210.906 492.369,210.239 492.5,209.5 Z"/></g>
<g><path style="opacity:1" fill="#e1b163" d="M 622.5,163.5 C 625.34,163.807 626.174,165.14 625,167.5C 628.264,170.484 631.43,173.651 634.5,177C 634.167,177.333 633.833,177.667 633.5,178C 637.786,180.839 638.453,184.172 635.5,188C 635.667,189.5 635.833,191 636,192.5C 639.667,196.833 643.333,201.167 647,205.5C 649.035,208.561 650.201,211.895 650.5,215.5C 648.429,214.109 646.762,212.276 645.5,210C 643.221,209.527 641.221,208.527 639.5,207C 640.167,206.667 640.833,206.333 641.5,206C 638.403,204.224 635.07,203.057 631.5,202.5C 630.5,202.5 629.5,202.5 628.5,202.5C 628.5,201.833 628.167,201.5 627.5,201.5C 627.047,200.542 626.381,199.708 625.5,199C 626.167,198.667 626.833,198.333 627.5,198C 626.624,196.414 625.624,194.914 624.5,193.5C 625.602,192.824 626.602,192.158 627.5,191.5C 634.903,186.984 635.403,181.651 629,175.5C 627.062,172.894 624.562,171.061 621.5,170C 614.125,169.314 606.792,169.647 599.5,171C 598.333,171.5 597.5,172.333 597,173.5C 596.503,175.81 596.337,178.143 596.5,180.5C 596.34,182.199 596.506,183.866 597,185.5C 598.758,187.083 600.258,188.75 601.5,190.5C 601.287,193.475 600.287,196.142 598.5,198.5C 599.005,199.919 600.005,200.585 601.5,200.5C 601.833,201.5 602.5,202.167 603.5,202.5C 605.372,205.723 608.038,207.723 611.5,208.5C 617.951,209.311 624.785,211.311 632,214.5C 634.184,213.892 636.184,214.559 638,216.5C 638.667,215.833 638.667,215.167 638,214.5C 633.553,210.104 634.387,209.438 640.5,212.5C 640.833,211.833 641.167,211.167 641.5,210.5C 644.545,211.544 646.545,213.544 647.5,216.5C 647.5,217.5 647.5,218.5 647.5,219.5C 645.858,218.133 644.192,217.799 642.5,218.5C 643.907,221.822 644.24,225.155 643.5,228.5C 641.831,227.11 640.164,226.777 638.5,227.5C 639.189,229.444 639.689,231.444 640,233.5C 640.159,231.657 640.659,230.991 641.5,231.5C 641.889,235.414 641.222,239.08 639.5,242.5C 637.79,240.8 635.79,239.467 633.5,238.5C 632.799,240.192 633.133,241.858 634.5,243.5C 634.768,245.099 634.434,246.432 633.5,247.5C 632.778,247.918 632.278,248.584 632,249.5C 630.71,247.208 629.043,245.208 627,243.5C 626.333,245.167 626.333,246.833 627,248.5C 628.019,250.502 628.852,252.502 629.5,254.5C 628.652,255.625 627.652,255.625 626.5,254.5C 626.751,250.669 625.584,247.336 623,244.5C 622.667,247.167 622.333,249.833 622,252.5C 620.961,251.29 619.794,250.29 618.5,249.5C 618.167,248.5 617.5,247.833 616.5,247.5C 615.167,246.167 613.833,244.833 612.5,243.5C 618.931,242.578 623.098,238.911 625,232.5C 627.209,229.186 627.709,225.686 626.5,222C 630.659,218.989 629.992,217.822 624.5,218.5C 623.153,215.634 621.153,213.134 618.5,211C 615.319,210.403 612.319,210.903 609.5,212.5C 606.552,210.082 603.552,210.082 600.5,212.5C 600.167,212.5 599.833,212.5 599.5,212.5C 592.677,213.32 585.844,212.987 579,211.5C 576.791,211.557 575.291,212.557 574.5,214.5C 570.659,209.829 566.493,209.496 562,213.5C 560.82,215.86 559.653,218.193 558.5,220.5C 556.571,220.231 554.905,220.731 553.5,222C 554.448,222.483 555.448,222.649 556.5,222.5C 556.721,232.278 561.055,239.611 569.5,244.5C 566.148,247.695 563.315,251.362 561,255.5C 558.898,252.295 557.065,248.962 555.5,245.5C 553.974,248.654 553.307,251.987 553.5,255.5C 552.073,253.852 551.24,251.852 551,249.5C 550.667,251.5 550.333,253.5 550,255.5C 547.916,249.381 546.916,243.048 547,236.5C 545.875,239.784 544.875,243.117 544,246.5C 543.667,246.167 543.333,245.833 543,245.5C 541.569,237.657 541.069,229.991 541.5,222.5C 542.968,221.194 544.301,219.694 545.5,218C 545.167,217.833 544.833,217.667 544.5,217.5C 542.147,219.523 539.814,221.523 537.5,223.5C 537.457,220.09 537.957,216.757 539,213.5C 541.941,208.228 545.274,203.228 549,198.5C 549.653,193.582 549.153,189.082 547.5,185C 549.409,181.399 551.742,178.066 554.5,175C 556.623,174.185 558.623,173.185 560.5,172C 559.5,171.667 558.5,171.333 557.5,171C 559.217,169.441 561.217,168.608 563.5,168.5C 563.938,168.435 564.272,168.601 564.5,169C 563.833,169.333 563.167,169.667 562.5,170C 564.087,170.862 565.754,171.529 567.5,172C 565.913,172.862 564.246,173.529 562.5,174C 565.783,174.743 568.783,174.076 571.5,172C 570.328,171.581 569.328,170.915 568.5,170C 570.5,169.667 572.5,169.333 574.5,169C 573.833,168.333 573.167,167.667 572.5,167C 574.432,166.862 576.266,167.362 578,168.5C 577.737,167.049 577.904,165.716 578.5,164.5C 580.167,165.167 581.833,165.833 583.5,166.5C 584.215,164.222 585.382,162.889 587,162.5C 588.079,164.394 589.413,164.727 591,163.5C 592,166.167 593,166.167 594,163.5C 594.333,164.833 594.667,166.167 595,167.5C 595.93,164.638 597.597,162.305 600,160.5C 599.805,162.126 599.805,163.793 600,165.5C 601.522,162.776 603.689,160.776 606.5,159.5C 607.696,159.846 607.696,160.346 606.5,161C 609.877,161.452 613.211,162.118 616.5,163C 616.043,163.414 615.709,163.914 615.5,164.5C 617.642,167.075 620.308,168.242 623.5,168C 620.581,166.457 620.248,164.957 622.5,163.5 Z"/></g>
<g><path style="opacity:1" fill="#f8eed2" d="M 624.5,218.5 C 625.492,221.779 625.659,225.112 625,228.5C 623.254,232.327 621.254,235.993 619,239.5C 615.321,241.689 611.488,242.023 607.5,240.5C 615.58,238.875 618.747,233.875 617,225.5C 616.167,223.333 614.667,221.833 612.5,221C 608.796,220.196 605.296,220.696 602,222.5C 601.517,221.552 601.351,220.552 601.5,219.5C 604.051,218.516 606.718,217.516 609.5,216.5C 610.292,215.3 610.292,213.967 609.5,212.5C 612.319,210.903 615.319,210.403 618.5,211C 621.153,213.134 623.153,215.634 624.5,218.5 Z"/></g>
<g><path style="opacity:1" fill="#f8eed2" d="M 574.5,214.5 C 574.369,215.376 574.702,216.043 575.5,216.5C 577.885,217.661 580.219,218.661 582.5,219.5C 582.5,220.5 582.5,221.5 582.5,222.5C 578.486,222.334 574.486,222.501 570.5,223C 564.24,227.856 563.907,233.19 569.5,239C 571.708,239.191 573.708,239.691 575.5,240.5C 570.559,242.532 566.392,241.532 563,237.5C 561.333,234.167 559.667,230.833 558,227.5C 557.297,225.071 557.463,222.738 558.5,220.5C 559.653,218.193 560.82,215.86 562,213.5C 566.493,209.496 570.659,209.829 574.5,214.5 Z"/></g>
<g><path style="opacity:1" fill="#f1e5c9" d="M 628.5,202.5 C 629.5,202.5 630.5,202.5 631.5,202.5C 632.605,204.3 631.939,205.467 629.5,206C 629.833,206.333 630.167,206.667 630.5,207C 625.845,207.499 621.179,207.666 616.5,207.5C 615.391,206.71 614.058,206.21 612.5,206C 617.459,203.448 622.792,202.281 628.5,202.5 Z"/></g>
<g><path style="opacity:1" fill="#f3e8cc" d="M 557.5,202.5 C 562.866,202.39 567.866,203.557 572.5,206C 570.942,206.21 569.609,206.71 568.5,207.5C 563.821,207.666 559.155,207.499 554.5,207C 554.209,205.042 555.209,203.542 557.5,202.5 Z"/></g>
<g><path style="opacity:1" fill="#5b3f2c" d="M 573.5,188.5 C 573.5,188.833 573.5,189.167 573.5,189.5C 572.209,189.263 571.209,189.596 570.5,190.5C 565.929,192.622 563.595,196.289 563.5,201.5C 565.167,201.5 566.833,201.5 568.5,201.5C 570.969,202.569 573.302,203.902 575.5,205.5C 577.396,204.725 579.063,203.725 580.5,202.5C 583.092,200.964 584.092,198.631 583.5,195.5C 583.833,195.5 584.167,195.5 584.5,195.5C 585.452,196.452 586.452,197.452 587.5,198.5C 582.942,203.523 577.442,206.856 571,208.5C 569.93,208.472 569.097,208.139 568.5,207.5C 569.609,206.71 570.942,206.21 572.5,206C 567.866,203.557 562.866,202.39 557.5,202.5C 561.328,199.91 563.995,196.243 565.5,191.5C 567.347,188.829 570.014,187.829 573.5,188.5 Z"/></g>
<g><path style="opacity:1" fill="#e3e5e6" d="M 573.5,189.5 C 573.5,189.167 573.5,188.833 573.5,188.5C 578.976,187.896 582.309,190.229 583.5,195.5C 584.092,198.631 583.092,200.964 580.5,202.5C 580.167,201.5 579.5,200.833 578.5,200.5C 577.89,199.609 577.557,198.609 577.5,197.5C 582.059,197.718 583.226,196.051 581,192.5C 579.005,190.253 576.505,189.253 573.5,189.5 Z"/></g>
<g><path style="opacity:1" fill="#e2e5e7" d="M 615.5,190.5 C 617.017,190.511 618.184,191.177 619,192.5C 620.442,195.05 621.608,197.716 622.5,200.5C 620.604,201.466 618.604,201.799 616.5,201.5C 615.833,200.5 615.167,199.5 614.5,198.5C 613.662,198.158 613.328,197.492 613.5,196.5C 618.083,195.985 618.749,193.985 615.5,190.5 Z"/></g>
<g><path style="opacity:1" fill="#d3d3d3" d="M 570.5,190.5 C 567.426,193.676 566.759,197.342 568.5,201.5C 566.833,201.5 565.167,201.5 563.5,201.5C 563.595,196.289 565.929,192.622 570.5,190.5 Z"/></g>
<g><path style="opacity:1" fill="#090f13" d="M 613.5,196.5 C 613.328,197.492 613.662,198.158 614.5,198.5C 612.521,201.947 610.021,202.28 607,199.5C 605.833,194 608,191.833 613.5,193C 614.684,194.145 614.684,195.312 613.5,196.5 Z"/></g>
<g><path style="opacity:1" fill="#060e11" d="M 577.5,197.5 C 577.557,198.609 577.89,199.609 578.5,200.5C 571.057,202.228 569.057,199.728 572.5,193C 575.847,191.794 578.18,192.794 579.5,196C 578.584,196.278 577.918,196.778 577.5,197.5 Z"/></g>
<g><path style="opacity:1" fill="#3589b1" d="M 607.5,189.5 C 610.385,189.194 613.052,189.527 615.5,190.5C 618.749,193.985 618.083,195.985 613.5,196.5C 614.684,195.312 614.684,194.145 613.5,193C 608,191.833 605.833,194 607,199.5C 610.021,202.28 612.521,201.947 614.5,198.5C 615.167,199.5 615.833,200.5 616.5,201.5C 614.565,202.81 612.565,204.143 610.5,205.5C 608.402,205.043 606.736,204.043 605.5,202.5C 602.436,197.616 603.103,193.283 607.5,189.5 Z"/></g>
<g><path style="opacity:1" fill="#c0c9cc" d="M 607.5,189.5 C 603.103,193.283 602.436,197.616 605.5,202.5C 604.833,202.5 604.167,202.5 603.5,202.5C 602.5,202.167 601.833,201.5 601.5,200.5C 601.933,197.834 602.433,195.168 603,192.5C 604.129,190.859 605.629,189.859 607.5,189.5 Z"/></g>
<g><path style="opacity:1" fill="#3389b1" d="M 573.5,189.5 C 576.505,189.253 579.005,190.253 581,192.5C 583.226,196.051 582.059,197.718 577.5,197.5C 577.918,196.778 578.584,196.278 579.5,196C 578.18,192.794 575.847,191.794 572.5,193C 569.057,199.728 571.057,202.228 578.5,200.5C 579.5,200.833 580.167,201.5 580.5,202.5C 579.063,203.725 577.396,204.725 575.5,205.5C 573.302,203.902 570.969,202.569 568.5,201.5C 566.759,197.342 567.426,193.676 570.5,190.5C 571.209,189.596 572.209,189.263 573.5,189.5 Z"/></g>
<g><path style="opacity:1" fill="#533521" d="M 627.5,201.5 C 628.167,201.5 628.5,201.833 628.5,202.5C 622.792,202.281 617.459,203.448 612.5,206C 614.058,206.21 615.391,206.71 616.5,207.5C 615.081,208.451 613.415,208.784 611.5,208.5C 608.038,207.723 605.372,205.723 603.5,202.5C 604.167,202.5 604.833,202.5 605.5,202.5C 606.736,204.043 608.402,205.043 610.5,205.5C 612.565,204.143 614.565,202.81 616.5,201.5C 618.604,201.799 620.604,201.466 622.5,200.5C 621.608,197.716 620.442,195.05 619,192.5C 618.184,191.177 617.017,190.511 615.5,190.5C 613.052,189.527 610.385,189.194 607.5,189.5C 605.629,189.859 604.129,190.859 603,192.5C 602.433,195.168 601.933,197.834 601.5,200.5C 600.005,200.585 599.005,199.919 598.5,198.5C 600.287,196.142 601.287,193.475 601.5,190.5C 612.567,184.578 620.067,187.578 624,199.5C 624.816,200.823 625.983,201.489 627.5,201.5 Z"/></g>
<g><path style="opacity:1" fill="#c48d48" d="M 596.5,180.5 C 598.261,184.767 601.261,185.6 605.5,183C 609.5,182.333 613.5,182.333 617.5,183C 621.044,185.721 624.378,188.554 627.5,191.5C 626.602,192.158 625.602,192.824 624.5,193.5C 625.624,194.914 626.624,196.414 627.5,198C 626.833,198.333 626.167,198.667 625.5,199C 626.381,199.708 627.047,200.542 627.5,201.5C 625.983,201.489 624.816,200.823 624,199.5C 620.067,187.578 612.567,184.578 601.5,190.5C 600.258,188.75 598.758,187.083 597,185.5C 596.506,183.866 596.34,182.199 596.5,180.5 Z"/></g>
<g><path style="opacity:1" fill="#703e1c" d="M 586.5,188.5 C 585.527,188.987 584.527,189.487 583.5,190C 584.406,191.699 584.739,193.533 584.5,195.5C 584.167,195.5 583.833,195.5 583.5,195.5C 582.309,190.229 578.976,187.896 573.5,188.5C 570.014,187.829 567.347,188.829 565.5,191.5C 565.103,190.475 564.437,190.308 563.5,191C 557.78,198.82 554.114,197.986 552.5,188.5C 554.2,188.374 555.7,187.707 557,186.5C 558.646,188.141 559.646,187.807 560,185.5C 560.725,186.059 561.558,186.392 562.5,186.5C 567.01,185.866 571.51,185.199 576,184.5C 578.911,186.757 582.078,187.423 585.5,186.5C 586.298,186.957 586.631,187.624 586.5,188.5 Z"/></g>
<g><path style="opacity:1" fill="#925425" d="M 586.5,188.5 C 586.631,187.624 586.298,186.957 585.5,186.5C 582.078,187.423 578.911,186.757 576,184.5C 571.51,185.199 567.01,185.866 562.5,186.5C 561.558,186.392 560.725,186.059 560,185.5C 559.646,187.807 558.646,188.141 557,186.5C 555.7,187.707 554.2,188.374 552.5,188.5C 556.7,179.631 563.7,175.298 573.5,175.5C 577.889,175.545 582.223,176.045 586.5,177C 588.007,178.473 588.674,180.307 588.5,182.5C 588.639,184.883 587.972,186.883 586.5,188.5 Z"/></g>
<g><path style="opacity:1" fill="#8c4f23" d="M 627.5,191.5 C 624.378,188.554 621.044,185.721 617.5,183C 613.5,182.333 609.5,182.333 605.5,183C 601.261,185.6 598.261,184.767 596.5,180.5C 596.337,178.143 596.503,175.81 597,173.5C 597.5,172.333 598.333,171.5 599.5,171C 606.792,169.647 614.125,169.314 621.5,170C 624.562,171.061 627.062,172.894 629,175.5C 635.403,181.651 634.903,186.984 627.5,191.5 Z"/></g>
<g><path style="opacity:0.024" fill="#ff91ff" d="M 756.5,211.5 C 757.525,211.897 757.692,212.563 757,213.5C 756.536,212.906 756.369,212.239 756.5,211.5 Z"/></g>
<g><path style="opacity:1" fill="#4c301d" d="M 609.5,212.5 C 610.292,213.967 610.292,215.3 609.5,216.5C 606.718,217.516 604.051,218.516 601.5,219.5C 600.835,221.698 600.168,224.031 599.5,226.5C 594.073,227.694 592.073,231.027 593.5,236.5C 598.44,236.953 603.107,238.286 607.5,240.5C 611.488,242.023 615.321,241.689 619,239.5C 621.254,235.993 623.254,232.327 625,228.5C 625.659,225.112 625.492,221.779 624.5,218.5C 629.992,217.822 630.659,218.989 626.5,222C 627.709,225.686 627.209,229.186 625,232.5C 623.098,238.911 618.931,242.578 612.5,243.5C 608.307,243.047 604.307,241.881 600.5,240C 595.167,239.333 589.833,239.333 584.5,240C 579.486,241.566 574.486,243.066 569.5,244.5C 561.055,239.611 556.721,232.278 556.5,222.5C 555.448,222.649 554.448,222.483 553.5,222C 554.905,220.731 556.571,220.231 558.5,220.5C 557.463,222.738 557.297,225.071 558,227.5C 559.667,230.833 561.333,234.167 563,237.5C 566.392,241.532 570.559,242.532 575.5,240.5C 580.199,238.158 585.199,236.825 590.5,236.5C 590.808,234.076 590.474,231.743 589.5,229.5C 585.5,227.193 583.167,223.86 582.5,219.5C 580.219,218.661 577.885,217.661 575.5,216.5C 574.702,216.043 574.369,215.376 574.5,214.5C 575.291,212.557 576.791,211.557 579,211.5C 585.844,212.987 592.677,213.32 599.5,212.5C 599.082,213.222 598.416,213.722 597.5,214C 593.833,214.333 590.167,214.667 586.5,215C 588.025,216.009 589.692,216.509 591.5,216.5C 591.71,222.966 592.377,222.966 593.5,216.5C 597.577,215.63 601.577,214.463 605.5,213C 603.866,212.506 602.199,212.34 600.5,212.5C 603.552,210.082 606.552,210.082 609.5,212.5 Z"/></g>
<g><path style="opacity:1" fill="#d2c6bf" d="M 599.5,212.5 C 599.833,212.5 600.167,212.5 600.5,212.5C 602.199,212.34 603.866,212.506 605.5,213C 601.577,214.463 597.577,215.63 593.5,216.5C 592.377,222.966 591.71,222.966 591.5,216.5C 589.692,216.509 588.025,216.009 586.5,215C 590.167,214.667 593.833,214.333 597.5,214C 598.416,213.722 599.082,213.222 599.5,212.5 Z"/></g>
<g><path style="opacity:1" fill="#ebd8b2" d="M 601.5,219.5 C 601.351,220.552 601.517,221.552 602,222.5C 605.296,220.696 608.796,220.196 612.5,221C 614.667,221.833 616.167,223.333 617,225.5C 618.747,233.875 615.58,238.875 607.5,240.5C 603.107,238.286 598.44,236.953 593.5,236.5C 592.073,231.027 594.073,227.694 599.5,226.5C 600.168,224.031 600.835,221.698 601.5,219.5 Z"/></g>
<g><path style="opacity:0.02" fill="#ff8ef4" d="M 754.5,220.5 C 756.337,220.639 756.67,221.306 755.5,222.5C 754.702,222.043 754.369,221.376 754.5,220.5 Z"/></g>
<g><path style="opacity:0.998" fill="#ca6f31" d="M 715.5,199.5 C 717.039,202.865 717.706,206.531 717.5,210.5C 717.619,214.997 716.952,219.33 715.5,223.5C 722.841,223.334 730.174,223.5 737.5,224C 741.17,224.587 744.337,226.087 747,228.5C 747.667,235.167 747.667,241.833 747,248.5C 745.124,250.422 743.624,252.589 742.5,255C 743.597,260.46 743.764,265.96 743,271.5C 742.163,273.844 740.829,275.844 739,277.5C 738.667,281.833 738.333,286.167 738,290.5C 737.722,291.416 737.222,292.082 736.5,292.5C 737.314,287.881 737.647,283.214 737.5,278.5C 737.5,277.5 737.5,276.5 737.5,275.5C 728.29,276.097 719.29,275.097 710.5,272.5C 709.086,265.753 709.252,259.087 711,252.5C 711.5,252 712,251.5 712.5,251C 724.942,250.766 725.275,249.766 713.5,248C 712.069,247.535 710.903,246.701 710,245.5C 708.879,238.559 709.712,231.892 712.5,225.5C 708.072,223.948 706.405,225.614 707.5,230.5C 704.122,229.891 702.122,231.224 701.5,234.5C 695.362,235.135 691.529,238.469 690,244.5C 689.501,249.155 689.334,253.821 689.5,258.5C 684.362,259.03 681.695,256.697 681.5,251.5C 682.917,247.998 683.584,244.331 683.5,240.5C 683.859,236.856 685.025,233.523 687,230.5C 688.96,219.528 688.293,208.861 685,198.5C 693.684,190.061 703.351,188.394 714,193.5C 714.813,195.436 715.313,197.436 715.5,199.5 Z"/></g>
<g><path style="opacity:1" fill="#e6b665" d="M 715.5,199.5 C 715.587,206.54 715.087,213.54 714,220.5C 709.559,223.331 704.726,224.164 699.5,223C 698.084,213.696 696.251,204.529 694,195.5C 698.888,192.993 704.054,192.16 709.5,193C 712.314,194.494 714.314,196.66 715.5,199.5 Z"/></g>
<g><path style="opacity:1" fill="#f4e3c4" d="M 541.5,222.5 C 540.196,223.987 539.03,225.654 538,227.5C 537.51,226.207 537.343,224.873 537.5,223.5C 539.814,221.523 542.147,219.523 544.5,217.5C 544.833,217.667 545.167,217.833 545.5,218C 544.301,219.694 542.968,221.194 541.5,222.5 Z"/></g>
<g><path style="opacity:1" fill="#ebd8b2" d="M 582.5,219.5 C 583.167,223.86 585.5,227.193 589.5,229.5C 590.474,231.743 590.808,234.076 590.5,236.5C 585.199,236.825 580.199,238.158 575.5,240.5C 573.708,239.691 571.708,239.191 569.5,239C 563.907,233.19 564.24,227.856 570.5,223C 574.486,222.501 578.486,222.334 582.5,222.5C 582.5,221.5 582.5,220.5 582.5,219.5 Z"/></g>
<g><path style="opacity:0.012" fill="#feaafe" d="M 494.5,225.5 C 495.833,226.167 495.833,226.167 494.5,225.5 Z"/></g>
<g><path style="opacity:1" fill="#dea154" d="M 722.5,225.5 C 729.083,227.004 735.75,228.671 742.5,230.5C 741.693,236.464 741.36,242.464 741.5,248.5C 733.801,248.725 726.301,247.725 719,245.5C 718.081,239.034 718.581,232.701 720.5,226.5C 720.957,225.702 721.624,225.369 722.5,225.5 Z"/></g>
<g><path style="opacity:0.024" fill="#ff95ff" d="M 754.5,226.5 C 755.289,226.783 755.956,227.283 756.5,228C 755.184,228.528 754.517,228.028 754.5,226.5 Z"/></g>
<g><path style="opacity:1" fill="#f0d7af" d="M 647.5,219.5 C 649.003,224.431 648.169,224.764 645,220.5C 644.833,221 644.667,221.5 644.5,222C 646.72,226.797 646.887,231.63 645,236.5C 644.777,234.119 643.61,232.453 641.5,231.5C 640.659,230.991 640.159,231.657 640,233.5C 639.689,231.444 639.189,229.444 638.5,227.5C 640.164,226.777 641.831,227.11 643.5,228.5C 644.24,225.155 643.907,221.822 642.5,218.5C 644.192,217.799 645.858,218.133 647.5,219.5 Z"/></g>
<g><path style="opacity:0.02" fill="#fe99cb" d="M 495.5,229.5 C 496.833,230.167 496.833,230.167 495.5,229.5 Z"/></g>
<g><path style="opacity:1" fill="#eeca97" d="M 722.5,225.5 C 731.007,224.413 738.84,226.08 746,230.5C 746.988,236.518 746.488,242.351 744.5,248C 743.552,248.483 742.552,248.649 741.5,248.5C 741.36,242.464 741.693,236.464 742.5,230.5C 735.75,228.671 729.083,227.004 722.5,225.5 Z"/></g>
<g><path style="opacity:0.016" fill="#fe80be" d="M 754.5,232.5 C 755.833,233.167 755.833,233.167 754.5,232.5 Z"/></g>
<g><path style="opacity:0.004" fill="#ff47ff" d="M 495.5,232.5 C 496.525,232.897 496.692,233.563 496,234.5C 495.536,233.906 495.369,233.239 495.5,232.5 Z"/></g>
<g><path style="opacity:0.992" fill="#b7653b" d="M 529.5,179.5 C 529.938,179.435 530.272,179.601 530.5,180C 529.418,181.33 528.751,182.83 528.5,184.5C 526.592,188.051 525.426,191.717 525,195.5C 526.113,193.671 527.613,192.837 529.5,193C 524.441,200.744 522.607,209.244 524,218.5C 524.895,215.625 525.728,215.292 526.5,217.5C 525.369,223.511 525.536,229.511 527,235.5C 529.366,242.98 532.033,250.314 535,257.5C 538.346,255.522 541.846,255.189 545.5,256.5C 544.5,257.333 543.5,258.167 542.5,259C 545.376,259.438 548.043,260.438 550.5,262C 548.825,262.985 547.158,263.819 545.5,264.5C 546.5,265.167 547.5,265.833 548.5,266.5C 547.041,266.433 545.708,266.766 544.5,267.5C 543.833,267.5 543.5,267.833 543.5,268.5C 541.5,268.5 539.5,268.5 537.5,268.5C 537.137,266.089 538.137,264.589 540.5,264C 538.413,264.218 536.413,264.051 534.5,263.5C 534.709,262.914 535.043,262.414 535.5,262C 533.667,261.5 532.5,260.333 532,258.5C 524.945,240.161 521.778,221.161 522.5,201.5C 521.5,201.5 520.5,201.5 519.5,201.5C 519.337,199.143 519.503,196.81 520,194.5C 523.021,189.332 526.188,184.332 529.5,179.5 Z"/></g>
<g><path style="opacity:1" fill="#e4b464" d="M 701.5,234.5 C 701.072,240.176 700.905,245.843 701,251.5C 702.205,252.071 703.372,252.738 704.5,253.5C 701.785,260.99 701.452,268.49 703.5,276C 703.011,277.138 702.678,278.305 702.5,279.5C 701.938,282.546 701.271,285.546 700.5,288.5C 693.004,293.817 688.504,291.817 687,282.5C 686.333,278.5 686.333,274.5 687,270.5C 689.06,267.714 690.56,264.714 691.5,261.5C 691.068,260.29 690.401,259.29 689.5,258.5C 689.334,253.821 689.501,249.155 690,244.5C 691.529,238.469 695.362,235.135 701.5,234.5 Z"/></g>
<g><path style="opacity:1" fill="#a27e43" d="M 701.5,234.5 C 703.288,234.215 704.955,234.548 706.5,235.5C 705.233,239.428 704.733,243.428 705,247.5C 706.098,248.967 707.598,249.801 709.5,250C 707.345,255.935 706.012,262.102 705.5,268.5C 705.321,271.131 705.987,273.465 707.5,275.5C 705.539,276.578 703.872,277.911 702.5,279.5C 702.678,278.305 703.011,277.138 703.5,276C 701.452,268.49 701.785,260.99 704.5,253.5C 703.372,252.738 702.205,252.071 701,251.5C 700.905,245.843 701.072,240.176 701.5,234.5 Z"/></g>
<g><path style="opacity:0.027" fill="#e0aade" d="M 754.5,235.5 C 755.773,236.077 755.773,236.743 754.5,237.5C 753.537,237.03 753.537,236.363 754.5,235.5 Z"/></g>
<g><path style="opacity:0.024" fill="#ff67e3" d="M 495.5,239.5 C 495.897,238.475 496.563,238.308 497.5,239C 496.906,239.464 496.239,239.631 495.5,239.5 Z"/></g>
<g><path style="opacity:1" fill="#f5e5c7" d="M 639.5,242.5 C 639.108,244.179 638.608,245.846 638,247.5C 637.34,245.676 636.173,244.343 634.5,243.5C 633.133,241.858 632.799,240.192 633.5,238.5C 635.79,239.467 637.79,240.8 639.5,242.5 Z"/></g>
<g><path style="opacity:1" fill="#fbf1d5" d="M 616.5,247.5 C 617.5,247.833 618.167,248.5 618.5,249.5C 619.072,251.255 619.906,252.922 621,254.5C 621.667,256.167 621.667,257.833 621,259.5C 620.155,255.837 618.322,252.837 615.5,250.5C 614.692,252.423 614.192,254.423 614,256.5C 613.751,255.376 613.251,254.376 612.5,253.5C 611.675,257.122 611.175,260.789 611,264.5C 609.548,260.263 607.548,256.263 605,252.5C 604.667,256.833 604.333,261.167 604,265.5C 603.587,262.768 602.92,260.101 602,257.5C 601.667,258.5 601.333,259.5 601,260.5C 599.227,250.036 598.227,250.369 598,261.5C 597.086,257.815 596.419,258.148 596,262.5C 595.667,261.167 595.333,259.833 595,258.5C 594.722,262.194 594.722,265.861 595,269.5C 592.627,265.418 590.794,261.084 589.5,256.5C 588.682,259.107 588.182,261.774 588,264.5C 587.667,262.167 587.333,259.833 587,257.5C 586.667,257.833 586.333,258.167 586,258.5C 585.821,261.553 585.321,264.553 584.5,267.5C 582.98,262.294 582.147,256.961 582,251.5C 579.334,256.154 577.668,261.154 577,266.5C 576.667,264.167 576.333,261.833 576,259.5C 575.553,265.989 574.553,265.989 573,259.5C 572.667,256.167 572.333,252.833 572,249.5C 570.333,251.167 568.667,252.833 567,254.5C 566.51,253.207 566.343,251.873 566.5,250.5C 567.429,249.064 568.595,247.731 570,246.5C 570.333,246.833 570.667,247.167 571,247.5C 573.659,245.077 576.492,243.744 579.5,243.5C 579.833,243.667 580.167,243.833 580.5,244C 578.078,246.003 577.245,248.503 578,251.5C 579.166,248.497 580.833,245.83 583,243.5C 583.333,244.167 583.667,244.833 584,245.5C 584.833,244.5 585.667,243.5 586.5,242.5C 587.425,243.641 588.259,243.641 589,242.5C 589.359,245.544 590.026,245.878 591,243.5C 591.539,246.529 592.206,249.529 593,252.5C 593.173,248.459 593.673,244.459 594.5,240.5C 595.948,242.667 597.115,245 598,247.5C 598,245.5 598,243.5 598,241.5C 599,243.833 600,246.167 601,248.5C 601.96,246.621 602.46,244.621 602.5,242.5C 604.336,243.796 606.336,244.63 608.5,245C 609.701,245.903 610.535,247.069 611,248.5C 611.308,247.692 611.808,247.025 612.5,246.5C 613.736,247.246 615.07,247.579 616.5,247.5 Z"/></g>
<g><path style="opacity:0.047" fill="#ee98ee" d="M 753.5,241.5 C 754.525,241.897 754.692,242.563 754,243.5C 753.536,242.906 753.369,242.239 753.5,241.5 Z"/></g>
<g><path style="opacity:0.016" fill="#ff81ff" d="M 496.5,241.5 C 498.476,242.427 498.809,243.76 497.5,245.5C 497.624,244.39 497.291,243.056 496.5,241.5 Z"/></g>
<g><path style="opacity:0.995" fill="#979697" d="M 681.5,242.5 C 680.627,244.886 679.127,246.886 677,248.5C 671.19,263.069 671.023,277.736 676.5,292.5C 672.265,293.424 668.099,293.424 664,292.5C 660.017,284.287 658.517,275.62 659.5,266.5C 660.267,262.302 661.601,258.302 663.5,254.5C 668.653,249.227 674.653,245.227 681.5,242.5 Z"/></g>
<g><path style="opacity:1" fill="#f6e4c1" d="M 633.5,247.5 C 633.039,250.303 631.705,252.637 629.5,254.5C 628.852,252.502 628.019,250.502 627,248.5C 626.333,246.833 626.333,245.167 627,243.5C 629.043,245.208 630.71,247.208 632,249.5C 632.278,248.584 632.778,247.918 633.5,247.5 Z"/></g>
<g><path style="opacity:1" fill="#bdbab9" d="M 683.5,240.5 C 683.584,244.331 682.917,247.998 681.5,251.5C 678.934,254.645 677.434,258.312 677,262.5C 676.109,273.273 677.776,283.607 682,293.5C 683.049,295.618 684.549,297.284 686.5,298.5C 689.634,303.119 693.968,304.619 699.5,303C 700.756,302.583 701.423,301.75 701.5,300.5C 703.5,300.5 705.5,300.5 707.5,300.5C 706.194,301.467 705.527,302.801 705.5,304.5C 702.833,305.5 700.167,306.5 697.5,307.5C 691.709,308.511 686.876,306.844 683,302.5C 680.548,299.239 678.381,295.906 676.5,292.5C 671.023,277.736 671.19,263.069 677,248.5C 679.127,246.886 680.627,244.886 681.5,242.5C 682.167,241.833 682.833,241.167 683.5,240.5 Z"/></g>
<g><path style="opacity:0.051" fill="#f6aff5" d="M 497.5,247.5 C 498.573,248.251 498.74,249.251 498,250.5C 497.517,249.552 497.351,248.552 497.5,247.5 Z"/></g>
<g><path style="opacity:1" fill="#e0a857" d="M 650.5,175.5 C 657.879,185.093 662.879,195.926 665.5,208C 664.501,211.664 663.501,215.331 662.5,219C 661.99,220.826 661.156,220.993 660,219.5C 659.667,224.167 659.333,228.833 659,233.5C 655.892,238.781 653.559,245.114 652,252.5C 651.223,254.215 649.89,255.215 648,255.5C 645.5,255 643,254.5 640.5,254C 642.788,253.054 644.955,251.887 647,250.5C 647.333,250.833 647.667,251.167 648,251.5C 648.667,250.167 649.333,248.833 650,247.5C 650.333,247.833 650.667,248.167 651,248.5C 652.499,242.524 653.665,237.19 654.5,232.5C 654.709,233.922 655.209,235.255 656,236.5C 656.333,235.833 656.667,235.167 657,234.5C 657.603,222.774 657.936,211.107 658,199.5C 659,202.167 660,204.833 661,207.5C 661.738,203.739 661.405,200.072 660,196.5C 656.805,189.448 653.638,182.448 650.5,175.5 Z"/></g>
<g><path style="opacity:0.004" fill="#ff48ff" d="M 498.5,251.5 C 499.573,252.251 499.74,253.251 499,254.5C 498.517,253.552 498.351,252.552 498.5,251.5 Z"/></g>
<g><path style="opacity:0.999" fill="#975322" d="M 737.5,278.5 C 736.833,278.5 736.167,278.5 735.5,278.5C 729.021,277.509 722.354,277.176 715.5,277.5C 712.881,277.232 710.381,277.565 708,278.5C 706.782,283.455 706.449,288.455 707,293.5C 709.192,295.235 711.692,296.402 714.5,297C 717.695,297.181 720.695,297.681 723.5,298.5C 718.304,300.087 712.97,300.754 707.5,300.5C 705.5,300.5 703.5,300.5 701.5,300.5C 696.5,299.833 691.5,299.167 686.5,298.5C 684.549,297.284 683.049,295.618 682,293.5C 677.776,283.607 676.109,273.273 677,262.5C 677.434,258.312 678.934,254.645 681.5,251.5C 681.695,256.697 684.362,259.03 689.5,258.5C 690.401,259.29 691.068,260.29 691.5,261.5C 688.421,261.804 685.587,262.804 683,264.5C 679.322,275.221 680.155,285.555 685.5,295.5C 690.131,296.662 694.798,296.828 699.5,296C 700.435,293.619 700.768,291.119 700.5,288.5C 701.271,285.546 701.938,282.546 702.5,279.5C 703.872,277.911 705.539,276.578 707.5,275.5C 705.987,273.465 705.321,271.131 705.5,268.5C 706.012,262.102 707.345,255.935 709.5,250C 707.598,249.801 706.098,248.967 705,247.5C 704.733,243.428 705.233,239.428 706.5,235.5C 704.955,234.548 703.288,234.215 701.5,234.5C 702.122,231.224 704.122,229.891 707.5,230.5C 706.405,225.614 708.072,223.948 712.5,225.5C 709.712,231.892 708.879,238.559 710,245.5C 710.903,246.701 712.069,247.535 713.5,248C 725.275,249.766 724.942,250.766 712.5,251C 712,251.5 711.5,252 711,252.5C 709.252,259.087 709.086,265.753 710.5,272.5C 719.29,275.097 728.29,276.097 737.5,275.5C 737.5,276.5 737.5,277.5 737.5,278.5 Z"/></g>
<g><path style="opacity:1" fill="#dea054" d="M 734.5,253.5 C 736.593,254.058 738.093,255.391 739,257.5C 739.295,262.267 738.795,266.934 737.5,271.5C 730.852,271.823 724.352,271.156 718,269.5C 717.514,263.425 718.014,257.425 719.5,251.5C 723.514,251.334 727.514,251.501 731.5,252C 732.737,252.232 733.737,252.732 734.5,253.5 Z"/></g>
<g><path style="opacity:0.004" fill="#ff47ff" d="M 752.5,251.5 C 753.525,251.897 753.692,252.563 753,253.5C 752.536,252.906 752.369,252.239 752.5,251.5 Z"/></g>
<g><path style="opacity:1" fill="#e2cdac" d="M 612.5,243.5 C 613.833,244.833 615.167,246.167 616.5,247.5C 615.07,247.579 613.736,247.246 612.5,246.5C 611.808,247.025 611.308,247.692 611,248.5C 610.535,247.069 609.701,245.903 608.5,245C 606.336,244.63 604.336,243.796 602.5,242.5C 602.46,244.621 601.96,246.621 601,248.5C 600,246.167 599,243.833 598,241.5C 598,243.5 598,245.5 598,247.5C 597.115,245 595.948,242.667 594.5,240.5C 593.673,244.459 593.173,248.459 593,252.5C 592.206,249.529 591.539,246.529 591,243.5C 590.026,245.878 589.359,245.544 589,242.5C 588.259,243.641 587.425,243.641 586.5,242.5C 585.667,243.5 584.833,244.5 584,245.5C 583.667,244.833 583.333,244.167 583,243.5C 580.833,245.83 579.166,248.497 578,251.5C 577.245,248.503 578.078,246.003 580.5,244C 580.167,243.833 579.833,243.667 579.5,243.5C 576.492,243.744 573.659,245.077 571,247.5C 570.667,247.167 570.333,246.833 570,246.5C 568.595,247.731 567.429,249.064 566.5,250.5C 562.685,256.208 562.519,262.208 566,268.5C 567.187,264.737 568.52,261.07 570,257.5C 570.119,264.305 572.285,270.305 576.5,275.5C 577.325,276.386 578.325,276.719 579.5,276.5C 579.263,272.727 579.763,269.06 581,265.5C 583.194,269.749 585.194,274.082 587,278.5C 588.704,275.001 590.038,271.334 591,267.5C 593.901,271.749 595.901,276.416 597,281.5C 598.927,278.052 600.261,274.385 601,270.5C 601.5,271.5 602,272.5 602.5,273.5C 601.626,275.747 601.292,278.08 601.5,280.5C 599.752,283.778 597.752,284.445 595.5,282.5C 594.969,279.763 594.136,277.096 593,274.5C 591.681,276.25 591.181,278.25 591.5,280.5C 590.71,281.609 590.21,282.942 590,284.5C 586.649,282.146 583.982,279.146 582,275.5C 581.808,277.577 581.308,279.577 580.5,281.5C 577.532,279.86 574.865,277.86 572.5,275.5C 571.62,272.738 570.454,270.071 569,267.5C 568.667,269.5 568.333,271.5 568,273.5C 566.296,271.627 564.463,269.96 562.5,268.5C 560.324,262.819 558.158,257.152 556,251.5C 555.808,253.577 555.308,255.577 554.5,257.5C 553.702,257.043 553.369,256.376 553.5,255.5C 553.307,251.987 553.974,248.654 555.5,245.5C 557.065,248.962 558.898,252.295 561,255.5C 563.315,251.362 566.148,247.695 569.5,244.5C 574.486,243.066 579.486,241.566 584.5,240C 589.833,239.333 595.167,239.333 600.5,240C 604.307,241.881 608.307,243.047 612.5,243.5 Z"/></g>
<g><path style="opacity:1" fill="#dea556" d="M 528.5,184.5 C 529.043,184.56 529.376,184.893 529.5,185.5C 528.696,186.941 528.029,188.441 527.5,190C 528.648,191.726 529.815,191.559 531,189.5C 531.167,189.833 531.333,190.167 531.5,190.5C 528.384,197.232 526.551,204.232 526,211.5C 527.093,209.651 528.426,207.984 530,206.5C 530.167,206.833 530.333,207.167 530.5,207.5C 528.784,210.095 527.784,212.929 527.5,216C 528.177,222.15 528.677,228.317 529,234.5C 529.17,232.285 529.837,230.285 531,228.5C 531.857,235.595 533.191,242.595 535,249.5C 535.333,248.5 535.667,247.5 536,246.5C 539.829,257.14 541.496,256.474 541,244.5C 543.935,253.107 549.435,259.607 557.5,264C 553.514,264.499 549.514,264.666 545.5,264.5C 547.158,263.819 548.825,262.985 550.5,262C 548.043,260.438 545.376,259.438 542.5,259C 543.5,258.167 544.5,257.333 545.5,256.5C 541.846,255.189 538.346,255.522 535,257.5C 532.033,250.314 529.366,242.98 527,235.5C 525.536,229.511 525.369,223.511 526.5,217.5C 525.728,215.292 524.895,215.625 524,218.5C 522.607,209.244 524.441,200.744 529.5,193C 527.613,192.837 526.113,193.671 525,195.5C 525.426,191.717 526.592,188.051 528.5,184.5 Z"/></g>
<g><path style="opacity:0.024" fill="#ea6fe9" d="M 498.5,258.5 C 499.077,257.227 499.743,257.227 500.5,258.5C 500.03,259.463 499.363,259.463 498.5,258.5 Z"/></g>
<g><path style="opacity:0.008" fill="#ffacff" d="M 752.5,256.5 C 753.773,257.077 753.773,257.743 752.5,258.5C 751.537,258.03 751.537,257.363 752.5,256.5 Z"/></g>
<g><path style="opacity:1" fill="#edc998" d="M 734.5,253.5 C 736.861,253.674 739.194,254.007 741.5,254.5C 742.481,259.129 742.648,263.796 742,268.5C 741.995,271.229 740.829,273.229 738.5,274.5C 737.614,273.675 737.281,272.675 737.5,271.5C 738.795,266.934 739.295,262.267 739,257.5C 738.093,255.391 736.593,254.058 734.5,253.5 Z"/></g>
<g><path style="opacity:1" fill="#c86d2b" d="M 691.5,261.5 C 690.56,264.714 689.06,267.714 687,270.5C 686.333,274.5 686.333,278.5 687,282.5C 688.504,291.817 693.004,293.817 700.5,288.5C 700.768,291.119 700.435,293.619 699.5,296C 694.798,296.828 690.131,296.662 685.5,295.5C 680.155,285.555 679.322,275.221 683,264.5C 685.587,262.804 688.421,261.804 691.5,261.5 Z"/></g>
<g><path style="opacity:0.008" fill="#a995a8" d="M 751.5,263.5 C 751.897,262.475 752.563,262.308 753.5,263C 752.906,263.464 752.239,263.631 751.5,263.5 Z"/></g>
<g><path style="opacity:0.004" fill="#ff2fff" d="M 499.5,264.5 C 499.897,263.475 500.563,263.308 501.5,264C 500.906,264.464 500.239,264.631 499.5,264.5 Z"/></g>
<g><path style="opacity:1" fill="#eeddbb" d="M 626.5,254.5 C 626.631,255.239 626.464,255.906 626,256.5C 624.883,255.051 624.216,253.384 624,251.5C 623.916,255.435 622.916,259.102 621,262.5C 618.693,261.61 617.527,262.61 617.5,265.5C 614.782,268.724 611.782,271.891 608.5,275C 607.256,275.456 606.423,274.956 606,273.5C 605.153,275.193 604.32,276.86 603.5,278.5C 603.167,279.5 602.5,280.167 601.5,280.5C 601.292,278.08 601.626,275.747 602.5,273.5C 602,272.5 601.5,271.5 601,270.5C 600.261,274.385 598.927,278.052 597,281.5C 595.901,276.416 593.901,271.749 591,267.5C 590.038,271.334 588.704,275.001 587,278.5C 585.194,274.082 583.194,269.749 581,265.5C 579.763,269.06 579.263,272.727 579.5,276.5C 578.325,276.719 577.325,276.386 576.5,275.5C 572.285,270.305 570.119,264.305 570,257.5C 568.52,261.07 567.187,264.737 566,268.5C 562.519,262.208 562.685,256.208 566.5,250.5C 566.343,251.873 566.51,253.207 567,254.5C 568.667,252.833 570.333,251.167 572,249.5C 572.333,252.833 572.667,256.167 573,259.5C 574.553,265.989 575.553,265.989 576,259.5C 576.333,261.833 576.667,264.167 577,266.5C 577.668,261.154 579.334,256.154 582,251.5C 582.147,256.961 582.98,262.294 584.5,267.5C 585.321,264.553 585.821,261.553 586,258.5C 586.333,258.167 586.667,257.833 587,257.5C 587.333,259.833 587.667,262.167 588,264.5C 588.182,261.774 588.682,259.107 589.5,256.5C 590.794,261.084 592.627,265.418 595,269.5C 594.722,265.861 594.722,262.194 595,258.5C 595.333,259.833 595.667,261.167 596,262.5C 596.419,258.148 597.086,257.815 598,261.5C 598.227,250.369 599.227,250.036 601,260.5C 601.333,259.5 601.667,258.5 602,257.5C 602.92,260.101 603.587,262.768 604,265.5C 604.333,261.167 604.667,256.833 605,252.5C 607.548,256.263 609.548,260.263 611,264.5C 611.175,260.789 611.675,257.122 612.5,253.5C 613.251,254.376 613.751,255.376 614,256.5C 614.192,254.423 614.692,252.423 615.5,250.5C 618.322,252.837 620.155,255.837 621,259.5C 621.667,257.833 621.667,256.167 621,254.5C 619.906,252.922 619.072,251.255 618.5,249.5C 619.794,250.29 620.961,251.29 622,252.5C 622.333,249.833 622.667,247.167 623,244.5C 625.584,247.336 626.751,250.669 626.5,254.5 Z"/></g>
<g><path style="opacity:0.031" fill="#fbaffa" d="M 750.5,265.5 C 752.337,265.639 752.67,266.306 751.5,267.5C 750.702,267.043 750.369,266.376 750.5,265.5 Z"/></g>
<g><path style="opacity:0.02" fill="#f699f6" d="M 500.5,266.5 C 501.525,266.897 501.692,267.563 501,268.5C 500.536,267.906 500.369,267.239 500.5,266.5 Z"/></g>
<g><path style="opacity:0.031" fill="#de9fde" d="M 500.5,270.5 C 501.833,271.167 501.833,271.167 500.5,270.5 Z"/></g>
<g><path style="opacity:1" fill="#d2d1d0" d="M 567.5,276.5 C 565.673,277.932 564.006,279.599 562.5,281.5C 565.739,283.149 567.239,285.816 567,289.5C 567.903,290.701 569.069,291.535 570.5,292C 569.748,292.671 569.414,293.504 569.5,294.5C 568.589,296.751 567.256,298.751 565.5,300.5C 562.837,295.685 561.003,290.351 560,284.5C 557.987,289.612 556.987,294.945 557,300.5C 553.026,296.22 550.36,291.22 549,285.5C 547.259,281.295 546.592,276.962 547,272.5C 547.956,271.106 549.289,270.439 551,270.5C 556.842,271.834 562.342,273.834 567.5,276.5 Z"/></g>
<g><path style="opacity:0.027" fill="#ef81ee" d="M 750.5,270.5 C 752.225,270.843 752.725,271.843 752,273.5C 750.961,272.756 750.461,271.756 750.5,270.5 Z"/></g>
<g><path style="opacity:0.055" fill="#ef95ec" d="M 501.5,272.5 C 502.525,272.897 502.692,273.563 502,274.5C 501.536,273.906 501.369,273.239 501.5,272.5 Z"/></g>
<g><path style="opacity:1" fill="#3b3a3b" d="M 650.5,302.5 C 642.116,301.122 634.783,303.122 628.5,308.5C 625.462,310.112 622.629,312.112 620,314.5C 621.912,310.677 623.912,306.677 626,302.5C 626.064,295.513 627.397,288.846 630,282.5C 631.471,290.646 635.804,292.646 643,288.5C 643.018,281.78 645.018,275.78 649,270.5C 648.151,275.901 647.651,281.401 647.5,287C 647.667,289.833 647.833,292.667 648,295.5C 649.411,297.65 650.245,299.984 650.5,302.5 Z"/></g>
<g><path style="opacity:1" fill="#e1e0e0" d="M 610.5,294.5 C 606.969,297.853 603.136,300.853 599,303.5C 597.261,296.588 596.095,289.588 595.5,282.5C 597.752,284.445 599.752,283.778 601.5,280.5C 602.5,280.167 603.167,279.5 603.5,278.5C 604.043,278.56 604.376,278.893 604.5,279.5C 603.36,281.078 602.86,282.744 603,284.5C 608.531,278.634 614.365,273.134 620.5,268C 625.154,265.657 629.821,265.324 634.5,267C 626.664,276.334 618.664,285.501 610.5,294.5 Z"/></g>
<g><path style="opacity:0.988" fill="#444445" d="M 543.5,270.5 C 541.963,279.422 541.296,288.422 541.5,297.5C 544.572,297.183 547.572,297.516 550.5,298.5C 548.701,301.267 547.034,304.101 545.5,307C 548.904,312.993 552.904,318.493 557.5,323.5C 556.933,328.347 555.933,333.014 554.5,337.5C 554.167,337.5 553.833,337.5 553.5,337.5C 551.928,332.685 549.595,328.352 546.5,324.5C 544.62,320.03 542.454,315.697 540,311.5C 537.973,312.693 536.473,314.36 535.5,316.5C 538.74,319.366 541.74,322.366 544.5,325.5C 537.573,329.258 532.073,334.592 528,341.5C 527.329,342.252 526.496,342.586 525.5,342.5C 519.728,339.107 514.061,335.44 508.5,331.5C 507.192,329.359 505.692,327.359 504,325.5C 503.333,323.833 503.333,322.167 504,320.5C 506.214,313.742 509.214,307.408 513,301.5C 519.342,295.157 525.342,288.491 531,281.5C 534.767,277.224 538.934,273.557 543.5,270.5 Z M 546.5,324.5 C 545.833,324.833 545.167,325.167 544.5,325.5C 541.74,322.366 538.74,319.366 535.5,316.5C 536.473,314.36 537.973,312.693 540,311.5C 542.454,315.697 544.62,320.03 546.5,324.5 Z"/></g>
<g><path style="opacity:1" fill="#dea054" d="M 715.5,277.5 C 722.354,277.176 729.021,277.509 735.5,278.5C 734.677,281.977 734.177,285.644 734,289.5C 731.649,290.714 729.149,291.548 726.5,292C 727.737,292.232 728.737,292.732 729.5,293.5C 714.7,296.709 710.033,291.376 715.5,277.5 Z"/></g>
<g><path style="opacity:0.063" fill="#fb91f7" d="M 750.5,276.5 C 751.525,276.897 751.692,277.563 751,278.5C 750.536,277.906 750.369,277.239 750.5,276.5 Z"/></g>
<g><path style="opacity:1" fill="#c76b29" d="M 715.5,277.5 C 710.033,291.376 714.7,296.709 729.5,293.5C 730.525,293.897 730.692,294.563 730,295.5C 728.348,296.399 726.848,297.399 725.5,298.5C 724.833,298.5 724.167,298.5 723.5,298.5C 720.695,297.681 717.695,297.181 714.5,297C 711.692,296.402 709.192,295.235 707,293.5C 706.449,288.455 706.782,283.455 708,278.5C 710.381,277.565 712.881,277.232 715.5,277.5 Z"/></g>
<g><path style="opacity:1" fill="#e9c094" d="M 735.5,278.5 C 736.167,278.5 736.833,278.5 737.5,278.5C 737.647,283.214 737.314,287.881 736.5,292.5C 733.79,296.2 730.124,298.2 725.5,298.5C 726.848,297.399 728.348,296.399 730,295.5C 730.692,294.563 730.525,293.897 729.5,293.5C 728.737,292.732 727.737,292.232 726.5,292C 729.149,291.548 731.649,290.714 734,289.5C 734.177,285.644 734.677,281.977 735.5,278.5 Z"/></g>
<g><path style="opacity:0.024" fill="#ff89ff" d="M 749.5,280.5 C 752.001,280.511 752.168,281.178 750,282.5C 749.536,281.906 749.369,281.239 749.5,280.5 Z"/></g>
<g><path style="opacity:0.012" fill="#c563c4" d="M 501.5,281.5 C 501.56,280.957 501.893,280.624 502.5,280.5C 503.583,281.365 503.749,282.365 503,283.5C 502.722,282.584 502.222,281.918 501.5,281.5 Z"/></g>
<g><path style="opacity:1" fill="#8f8d8b" d="M 641.5,263.5 C 641.5,264.167 641.5,264.833 641.5,265.5C 633.524,271.608 627.358,279.274 623,288.5C 622.505,290.473 622.338,292.473 622.5,294.5C 618.5,294.5 614.5,294.5 610.5,294.5C 618.664,285.501 626.664,276.334 634.5,267C 629.821,265.324 625.154,265.657 620.5,268C 614.365,273.134 608.531,278.634 603,284.5C 602.86,282.744 603.36,281.078 604.5,279.5C 604.376,278.893 604.043,278.56 603.5,278.5C 604.32,276.86 605.153,275.193 606,273.5C 606.423,274.956 607.256,275.456 608.5,275C 611.782,271.891 614.782,268.724 617.5,265.5C 625.383,263.781 633.383,263.114 641.5,263.5 Z"/></g>
<g><path style="opacity:0.994" fill="#4d4d4e" d="M 663.5,254.5 C 661.601,258.302 660.267,262.302 659.5,266.5C 656.858,281.249 660.191,294.583 669.5,306.5C 662.85,306.587 656.516,305.253 650.5,302.5C 650.245,299.984 649.411,297.65 648,295.5C 647.833,292.667 647.667,289.833 647.5,287C 647.651,281.401 648.151,275.901 649,270.5C 645.018,275.78 643.018,281.78 643,288.5C 635.804,292.646 631.471,290.646 630,282.5C 627.397,288.846 626.064,295.513 626,302.5C 623.912,306.677 621.912,310.677 620,314.5C 622.629,312.112 625.462,310.112 628.5,308.5C 618.892,319.705 615.726,332.705 619,347.5C 621.351,352.727 622.184,358.06 621.5,363.5C 619.167,363.5 616.833,363.5 614.5,363.5C 614.5,365.5 614.5,367.5 614.5,369.5C 613.549,368.081 613.216,366.415 613.5,364.5C 608.05,365.09 602.717,366.257 597.5,368C 595.167,368.667 592.833,368.667 590.5,368C 586.311,364.31 581.978,360.81 577.5,357.5C 573.785,360.548 570.452,363.881 567.5,367.5C 564.828,366.499 562.162,365.499 559.5,364.5C 558.791,363.596 557.791,363.263 556.5,363.5C 556.685,358.43 557.352,353.43 558.5,348.5C 561.824,351.653 565.324,354.653 569,357.5C 574.904,353.945 580.57,349.945 586,345.5C 584.835,332.26 584.002,318.927 583.5,305.5C 585.089,311.52 586.255,317.854 587,324.5C 595.369,315.235 605.535,308.901 617.5,305.5C 617.649,304.448 617.483,303.448 617,302.5C 615.043,299.54 612.876,296.874 610.5,294.5C 614.5,294.5 618.5,294.5 622.5,294.5C 622.338,292.473 622.505,290.473 623,288.5C 627.358,279.274 633.524,271.608 641.5,265.5C 644.864,266.778 648.197,266.612 651.5,265C 655.05,260.947 659.05,257.447 663.5,254.5 Z"/></g>
<g><path style="opacity:0.012" fill="#ffa6ff" d="M 502.5,287.5 C 502.897,286.475 503.563,286.308 504.5,287C 503.906,287.464 503.239,287.631 502.5,287.5 Z"/></g>
<g><path style="opacity:1" fill="#dad8d7" d="M 591.5,285.5 C 593.377,286.659 593.877,288.326 593,290.5C 589.941,295.037 586.775,299.37 583.5,303.5C 583.5,299.833 583.5,296.167 583.5,292.5C 585.38,292.771 586.713,292.104 587.5,290.5C 588.691,288.673 590.025,287.007 591.5,285.5 Z"/></g>
<g><path style="opacity:0.016" fill="#f98cfb" d="M 749.5,285.5 C 750.573,286.251 750.74,287.251 750,288.5C 749.517,287.552 749.351,286.552 749.5,285.5 Z"/></g>
<g><path style="opacity:1" fill="#831d1d" d="M 572.5,275.5 C 574.865,277.86 577.532,279.86 580.5,281.5C 581.308,279.577 581.808,277.577 582,275.5C 583.982,279.146 586.649,282.146 590,284.5C 590.21,282.942 590.71,281.609 591.5,280.5C 592.141,281.482 592.807,282.482 593.5,283.5C 592.757,284.182 592.091,284.849 591.5,285.5C 590.025,287.007 588.691,288.673 587.5,290.5C 586.713,292.104 585.38,292.771 583.5,292.5C 582.833,292.5 582.5,292.833 582.5,293.5C 580.254,292.79 577.92,292.29 575.5,292C 576.706,290.982 576.373,290.482 574.5,290.5C 572.423,291.323 570.756,292.656 569.5,294.5C 569.414,293.504 569.748,292.671 570.5,292C 569.069,291.535 567.903,290.701 567,289.5C 567.239,285.816 565.739,283.149 562.5,281.5C 564.006,279.599 565.673,277.932 567.5,276.5C 569.292,276.634 570.958,276.301 572.5,275.5 Z"/></g>
<g><path style="opacity:1" fill="#b12223" d="M 587.5,290.5 C 581.263,290.707 575.929,288.707 571.5,284.5C 571.938,283.494 572.604,283.494 573.5,284.5C 574.167,283.167 574.833,281.833 575.5,280.5C 578.389,283.056 581.722,284.723 585.5,285.5C 586.167,285.167 586.833,284.833 587.5,284.5C 588.231,286.401 588.231,288.401 587.5,290.5 Z"/></g>
<g><path style="opacity:0.027" fill="#ffb8ff" d="M 503.5,289.5 C 504.525,289.897 504.692,290.563 504,291.5C 503.536,290.906 503.369,290.239 503.5,289.5 Z"/></g>
<g><path style="opacity:1" fill="#929090" d="M 548.5,266.5 C 553.271,266.538 557.938,267.204 562.5,268.5C 564.463,269.96 566.296,271.627 568,273.5C 568.333,271.5 568.667,269.5 569,267.5C 570.454,270.071 571.62,272.738 572.5,275.5C 570.958,276.301 569.292,276.634 567.5,276.5C 562.342,273.834 556.842,271.834 551,270.5C 549.289,270.439 547.956,271.106 547,272.5C 546.592,276.962 547.259,281.295 549,285.5C 550.36,291.22 553.026,296.22 557,300.5C 556.987,294.945 557.987,289.612 560,284.5C 561.003,290.351 562.837,295.685 565.5,300.5C 562.561,308.05 559.895,315.717 557.5,323.5C 552.904,318.493 548.904,312.993 545.5,307C 547.034,304.101 548.701,301.267 550.5,298.5C 547.572,297.516 544.572,297.183 541.5,297.5C 541.296,288.422 541.963,279.422 543.5,270.5C 543.5,269.833 543.5,269.167 543.5,268.5C 544.167,268.5 544.5,268.167 544.5,267.5C 545.708,266.766 547.041,266.433 548.5,266.5 Z"/></g>
<g><path style="opacity:0.02" fill="#cb66cc" d="M 503.5,292.5 C 504.833,293.167 504.833,293.167 503.5,292.5 Z"/></g>
<g><path style="opacity:1" fill="#919191" d="M 595.5,282.5 C 596.095,289.588 597.261,296.588 599,303.5C 603.136,300.853 606.969,297.853 610.5,294.5C 612.876,296.874 615.043,299.54 617,302.5C 617.483,303.448 617.649,304.448 617.5,305.5C 605.535,308.901 595.369,315.235 587,324.5C 586.255,317.854 585.089,311.52 583.5,305.5C 583.5,304.833 583.5,304.167 583.5,303.5C 586.775,299.37 589.941,295.037 593,290.5C 593.877,288.326 593.377,286.659 591.5,285.5C 592.091,284.849 592.757,284.182 593.5,283.5C 592.807,282.482 592.141,281.482 591.5,280.5C 591.181,278.25 591.681,276.25 593,274.5C 594.136,277.096 594.969,279.763 595.5,282.5 Z"/></g>
<g><path style="opacity:1" fill="#7f7f7f" d="M 659.5,266.5 C 658.517,275.62 660.017,284.287 664,292.5C 668.099,293.424 672.265,293.424 676.5,292.5C 678.381,295.906 680.548,299.239 683,302.5C 686.876,306.844 691.709,308.511 697.5,307.5C 693.124,309.989 688.291,310.989 683,310.5C 677.637,311.358 673.137,310.024 669.5,306.5C 660.191,294.583 656.858,281.249 659.5,266.5 Z"/></g>
<g><path style="opacity:0.012" fill="#c254c2" d="M 748.5,291.5 C 750.337,291.639 750.67,292.306 749.5,293.5C 748.702,293.043 748.369,292.376 748.5,291.5 Z"/></g>
<g><path style="opacity:0.031" fill="#ff95ff" d="M 504.5,295.5 C 505.525,295.897 505.692,296.563 505,297.5C 504.536,296.906 504.369,296.239 504.5,295.5 Z"/></g>
<g><path style="opacity:0.004" fill="#b93ab8" d="M 748.5,295.5 C 751.001,295.511 751.168,296.178 749,297.5C 748.536,296.906 748.369,296.239 748.5,295.5 Z"/></g>
<g><path style="opacity:1" fill="#b81f24" d="M 582.5,293.5 C 581.741,310.147 581.241,326.813 581,343.5C 576.636,346.696 572.136,349.696 567.5,352.5C 564.804,351.149 562.47,349.316 560.5,347C 559.552,346.517 558.552,346.351 557.5,346.5C 555.273,345.599 554.273,343.933 554.5,341.5C 554.5,340.167 554.5,338.833 554.5,337.5C 555.933,333.014 556.933,328.347 557.5,323.5C 559.895,315.717 562.561,308.05 565.5,300.5C 567.256,298.751 568.589,296.751 569.5,294.5C 570.756,292.656 572.423,291.323 574.5,290.5C 576.373,290.482 576.706,290.982 575.5,292C 577.92,292.29 580.254,292.79 582.5,293.5 Z"/></g>
<g><path style="opacity:1" fill="#413f3f" d="M 686.5,298.5 C 691.5,299.167 696.5,299.833 701.5,300.5C 701.423,301.75 700.756,302.583 699.5,303C 693.968,304.619 689.634,303.119 686.5,298.5 Z"/></g>
<g><path style="opacity:0.086" fill="#f7abf7" d="M 747.5,302.5 C 747.897,301.475 748.563,301.308 749.5,302C 748.906,302.464 748.239,302.631 747.5,302.5 Z"/></g>
<g><path style="opacity:0.008" fill="#bb647c" d="M 505.5,305.5 C 508.001,305.511 508.168,306.178 506,307.5C 505.536,306.906 505.369,306.239 505.5,305.5 Z"/></g>
<g><path style="opacity:0.004" fill="#ff4aff" d="M 747.5,306.5 C 750.001,306.511 750.168,307.178 748,308.5C 747.536,307.906 747.369,307.239 747.5,306.5 Z"/></g>
<g><path style="opacity:0.008" fill="#e962e9" d="M 505.5,308.5 C 508.001,308.511 508.168,309.178 506,310.5C 505.536,309.906 505.369,309.239 505.5,308.5 Z"/></g>
<g><path style="opacity:0.149" fill="#f19af1" d="M 747.5,309.5 C 748.833,310.167 748.833,310.167 747.5,309.5 Z"/></g>
<g><path style="opacity:0.008" fill="#ffadff" d="M 747.5,311.5 C 748.525,311.897 748.692,312.563 748,313.5C 747.536,312.906 747.369,312.239 747.5,311.5 Z"/></g>
<g><path style="opacity:0.008" fill="#fa50f9" d="M 746.5,317.5 C 746.897,316.475 747.563,316.308 748.5,317C 747.906,317.464 747.239,317.631 746.5,317.5 Z"/></g>
<g><path style="opacity:0.016" fill="#d484ca" d="M 746.5,321.5 C 747.525,321.897 747.692,322.563 747,323.5C 746.536,322.906 746.369,322.239 746.5,321.5 Z"/></g>
<g><path style="opacity:0.031" fill="#fa9cfa" d="M 745.5,325.5 C 745.897,324.475 746.563,324.308 747.5,325C 746.906,325.464 746.239,325.631 745.5,325.5 Z"/></g>
<g><path style="opacity:0.047" fill="#ea79e8" d="M 745.5,327.5 C 747.147,329.186 747.314,330.853 746,332.5C 745.5,332 745,331.5 744.5,331C 745.337,329.989 745.67,328.822 745.5,327.5 Z"/></g>
<g><path style="opacity:1" fill="#999899" d="M 546.5,324.5 C 549.595,328.352 551.928,332.685 553.5,337.5C 547.062,347.105 539.895,347.772 532,339.5C 529.274,341.185 527.94,343.518 528,346.5C 531.778,348.97 535.611,351.303 539.5,353.5C 539.5,353.833 539.5,354.167 539.5,354.5C 538.833,354.5 538.167,354.5 537.5,354.5C 533.897,352.36 530.23,350.193 526.5,348C 525.594,346.301 525.261,344.467 525.5,342.5C 526.496,342.586 527.329,342.252 528,341.5C 532.073,334.592 537.573,329.258 544.5,325.5C 545.167,325.167 545.833,324.833 546.5,324.5 Z"/></g>
<g><path style="opacity:0.039" fill="#feb3e5" d="M 509.5,334.5 C 510.833,335.167 510.833,335.167 509.5,334.5 Z"/></g>
<g><path style="opacity:0.047" fill="#f48bf4" d="M 744.5,337.5 C 745.077,336.227 745.743,336.227 746.5,337.5C 746.03,338.463 745.363,338.463 744.5,337.5 Z"/></g>
<g><path style="opacity:0.051" fill="#966695" d="M 509.5,338.5 C 509.897,337.475 510.563,337.308 511.5,338C 510.906,338.464 510.239,338.631 509.5,338.5 Z"/></g>
<g><path style="opacity:0.999" fill="#7a7877" d="M 553.5,337.5 C 553.833,337.5 554.167,337.5 554.5,337.5C 554.5,338.833 554.5,340.167 554.5,341.5C 550.562,344.098 546.895,347.098 543.5,350.5C 542.167,351.167 541.167,352.167 540.5,353.5C 540.167,353.5 539.833,353.5 539.5,353.5C 535.611,351.303 531.778,348.97 528,346.5C 527.94,343.518 529.274,341.185 532,339.5C 539.895,347.772 547.062,347.105 553.5,337.5 Z"/></g>
<g><path style="opacity:0.024" fill="#e369e3" d="M 510.5,340.5 C 511.525,340.897 511.692,341.563 511,342.5C 510.536,341.906 510.369,341.239 510.5,340.5 Z"/></g>
<g><path style="opacity:1" fill="#c1692c" d="M 554.5,341.5 C 554.273,343.933 555.273,345.599 557.5,346.5C 557.833,347.167 558.167,347.833 558.5,348.5C 557.352,353.43 556.685,358.43 556.5,363.5C 557.791,363.263 558.791,363.596 559.5,364.5C 555.275,370.4 550.941,370.733 546.5,365.5C 550.361,365.482 553.027,363.649 554.5,360C 554.355,359.228 554.022,358.561 553.5,358C 550.853,356.701 548.186,355.368 545.5,354C 544.177,353.184 543.511,352.017 543.5,350.5C 546.895,347.098 550.562,344.098 554.5,341.5 Z"/></g>
<g><path style="opacity:0.09" fill="#f79af7" d="M 510.5,344.5 C 510.897,343.475 511.563,343.308 512.5,344C 511.906,344.464 511.239,344.631 510.5,344.5 Z"/></g>
<g><path style="opacity:0.004" fill="#fe00ff" d="M 744.5,343.5 C 745.833,344.167 745.833,344.167 744.5,343.5 Z"/></g>
<g><path style="opacity:0.075" fill="#f98cf8" d="M 744.5,345.5 C 745.573,346.251 745.74,347.251 745,348.5C 744.517,347.552 744.351,346.552 744.5,345.5 Z"/></g>
<g><path style="opacity:1" fill="#6e6e6e" d="M 612.5,346.5 C 614.809,347.388 616.476,349.054 617.5,351.5C 611.968,354.676 605.968,356.343 599.5,356.5C 599.201,354.396 599.534,352.396 600.5,350.5C 604.71,349.456 608.71,348.123 612.5,346.5 Z"/></g>
<g><path style="opacity:0.004" fill="#fefffe" d="M 511.5,351.5 C 512.833,352.167 512.833,352.167 511.5,351.5 Z"/></g>
<g><path style="opacity:1" fill="#ac3133" d="M 583.5,292.5 C 583.5,296.167 583.5,299.833 583.5,303.5C 583.5,304.167 583.5,304.833 583.5,305.5C 584.002,318.927 584.835,332.26 586,345.5C 580.57,349.945 574.904,353.945 569,357.5C 565.324,354.653 561.824,351.653 558.5,348.5C 558.167,347.833 557.833,347.167 557.5,346.5C 558.552,346.351 559.552,346.517 560.5,347C 562.47,349.316 564.804,351.149 567.5,352.5C 572.136,349.696 576.636,346.696 581,343.5C 581.241,326.813 581.741,310.147 582.5,293.5C 582.5,292.833 582.833,292.5 583.5,292.5 Z"/></g>
<g><path style="opacity:0.016" fill="#da86da" d="M 743.5,351.5 C 744.573,352.251 744.74,353.251 744,354.5C 743.517,353.552 743.351,352.552 743.5,351.5 Z"/></g>
<g><path style="opacity:1" fill="#e0a95d" d="M 543.5,350.5 C 543.511,352.017 544.177,353.184 545.5,354C 548.186,355.368 550.853,356.701 553.5,358C 554.022,358.561 554.355,359.228 554.5,360C 553.027,363.649 550.361,365.482 546.5,365.5C 543.385,363.769 540.385,361.769 537.5,359.5C 536.948,357.997 536.948,356.331 537.5,354.5C 538.167,354.5 538.833,354.5 539.5,354.5C 540.167,354.5 540.5,354.167 540.5,353.5C 541.167,352.167 542.167,351.167 543.5,350.5 Z"/></g>
<g><path style="opacity:0.016" fill="#ff86ff" d="M 512.5,356.5 C 513.525,356.897 513.692,357.563 513,358.5C 512.536,357.906 512.369,357.239 512.5,356.5 Z"/></g>
<g><path style="opacity:0.004" fill="#fe00ff" d="M 743.5,357.5 C 744.833,358.167 744.833,358.167 743.5,357.5 Z"/></g>
<g><path style="opacity:0.983" fill="#42637a" d="M 614.5,369.5 C 614.833,370.167 615.167,370.833 615.5,371.5C 619.607,378.167 622.94,385.167 625.5,392.5C 627.662,395.42 630.662,397.087 634.5,397.5C 637.371,399.536 640.371,401.37 643.5,403C 642.978,403.561 642.645,404.228 642.5,405C 644.871,409.29 646.871,413.79 648.5,418.5C 645.42,418.252 642.42,417.586 639.5,416.5C 638.584,416.543 637.917,416.876 637.5,417.5C 633.767,417.87 630.101,418.537 626.5,419.5C 625.246,415.565 624.246,411.565 623.5,407.5C 623.597,403.348 621.931,400.348 618.5,398.5C 616.95,393.734 614.617,389.4 611.5,385.5C 607.155,381.153 603.155,376.486 599.5,371.5C 591.833,370.167 584.167,370.167 576.5,371.5C 578.651,378.059 580.484,384.726 582,391.5C 584.442,394.729 587.108,397.729 590,400.5C 591.107,406.787 591.607,413.12 591.5,419.5C 591.5,420.5 591.5,421.5 591.5,422.5C 586.5,420.336 581.833,417.669 577.5,414.5C 574.001,398.842 570.668,383.176 567.5,367.5C 570.452,363.881 573.785,360.548 577.5,357.5C 581.978,360.81 586.311,364.31 590.5,368C 592.833,368.667 595.167,368.667 597.5,368C 602.717,366.257 608.05,365.09 613.5,364.5C 613.216,366.415 613.549,368.081 614.5,369.5 Z"/></g>
<g><path style="opacity:0.012" fill="#ff8bff" d="M 742.5,359.5 C 744.97,360.36 745.137,361.694 743,363.5C 742.51,362.207 742.343,360.873 742.5,359.5 Z"/></g>
<g><path style="opacity:0.008" fill="#fb5cfa" d="M 513.5,360.5 C 514.598,361.601 514.765,362.934 514,364.5C 513.51,363.207 513.343,361.873 513.5,360.5 Z"/></g>
<g><path style="opacity:0.993" fill="#b1602f" d="M 621.5,363.5 C 640.333,369.323 644.666,380.656 634.5,397.5C 630.662,397.087 627.662,395.42 625.5,392.5C 632.702,385.696 632.035,379.696 623.5,374.5C 620.812,373.487 618.146,372.487 615.5,371.5C 615.167,370.833 614.833,370.167 614.5,369.5C 614.5,367.5 614.5,365.5 614.5,363.5C 616.833,363.5 619.167,363.5 621.5,363.5 Z"/></g>
<g><path style="opacity:0.02" fill="#ff7aff" d="M 513.5,367.5 C 513.897,366.475 514.563,366.308 515.5,367C 514.906,367.464 514.239,367.631 513.5,367.5 Z"/></g>
<g><path style="opacity:0.043" fill="#ffa5f4" d="M 741.5,365.5 C 743.337,365.639 743.67,366.306 742.5,367.5C 741.702,367.043 741.369,366.376 741.5,365.5 Z"/></g>
<g><path style="opacity:0.024" fill="#e8a0f8" d="M 514.5,371.5 C 516.337,371.639 516.67,372.306 515.5,373.5C 514.702,373.043 514.369,372.376 514.5,371.5 Z"/></g>
<g><path style="opacity:0.02" fill="#e76de5" d="M 741.5,373.5 C 742.077,372.227 742.743,372.227 743.5,373.5C 743.03,374.463 742.363,374.463 741.5,373.5 Z"/></g>
<g><path style="opacity:0.137" fill="#efa0ef" d="M 741.5,375.5 C 742.833,376.167 742.833,376.167 741.5,375.5 Z"/></g>
<g><path style="opacity:0.012" fill="#faa5fa" d="M 515.5,375.5 C 516.525,375.897 516.692,376.563 516,377.5C 515.536,376.906 515.369,376.239 515.5,375.5 Z"/></g>
<g><path style="opacity:0.997" fill="#e3ad61" d="M 675.5,413.5 C 673.565,414.15 671.565,414.483 669.5,414.5C 660.334,410.504 657.501,403.837 661,394.5C 662.29,392.208 663.957,390.208 666,388.5C 668.191,383.62 667.358,379.287 663.5,375.5C 664.559,374.304 665.893,373.637 667.5,373.5C 671.857,375.691 675.024,379.024 677,383.5C 678,382.167 679,382.167 680,383.5C 683.017,390.206 684.35,397.206 684,404.5C 682.953,409.308 680.12,412.308 675.5,413.5 Z"/></g>
<g><path style="opacity:0.004" fill="#4e374e" d="M 515.5,379.5 C 516.525,379.897 516.692,380.563 516,381.5C 515.536,380.906 515.369,380.239 515.5,379.5 Z"/></g>
<g><path style="opacity:0.059" fill="#eb99eb" d="M 741.5,380.5 C 742.525,380.897 742.692,381.563 742,382.5C 741.536,381.906 741.369,381.239 741.5,380.5 Z"/></g>
<g><path style="opacity:0.008" fill="#fe80ff" d="M 516.5,383.5 C 517.833,384.167 517.833,384.167 516.5,383.5 Z"/></g>
<g><path style="opacity:0.012" fill="#ffa2ff" d="M 516.5,386.5 C 516.897,385.475 517.563,385.308 518.5,386C 517.906,386.464 517.239,386.631 516.5,386.5 Z"/></g>
<g><path style="opacity:0.025" fill="#f897f8" d="M 740.5,386.5 C 741.788,388.035 741.788,389.701 740.5,391.5C 739.948,389.997 739.948,388.331 740.5,386.5 Z"/></g>
<g><path style="opacity:0.012" fill="#feaafe" d="M 517.5,389.5 C 518.833,390.167 518.833,390.167 517.5,389.5 Z"/></g>
<g><path style="opacity:0.008" fill="#e379e1" d="M 520.5,389.5 C 522.337,389.639 522.67,390.306 521.5,391.5C 520.702,391.043 520.369,390.376 520.5,389.5 Z"/></g>
<g><path style="opacity:0.09" fill="#ff9ff7" d="M 525.5,391.5 C 525.897,390.475 526.563,390.308 527.5,391C 526.906,391.464 526.239,391.631 525.5,391.5 Z"/></g>
<g><path style="opacity:0.008" fill="#7f0080" d="M 528.5,391.5 C 529.833,392.167 529.833,392.167 528.5,391.5 Z"/></g>
<g><path style="opacity:0.024" fill="#ff82ff" d="M 532.5,392.5 C 533.251,391.427 534.251,391.26 535.5,392C 534.552,392.483 533.552,392.649 532.5,392.5 Z"/></g>
<g><path style="opacity:0.008" fill="#fe80ff" d="M 538.5,392.5 C 539.833,393.167 539.833,393.167 538.5,392.5 Z"/></g>
<g><path style="opacity:0.004" fill="#ff47ff" d="M 541.5,393.5 C 541.897,392.475 542.563,392.308 543.5,393C 542.906,393.464 542.239,393.631 541.5,393.5 Z"/></g>
<g><path style="opacity:0.004" fill="#c736c6" d="M 545.5,393.5 C 546.386,392.224 547.386,392.224 548.5,393.5C 547.767,394.087 546.767,394.087 545.5,393.5 Z"/></g>
<g><path style="opacity:0.055" fill="#e888e8" d="M 551.5,392.5 C 553.337,392.639 553.67,393.306 552.5,394.5C 551.702,394.043 551.369,393.376 551.5,392.5 Z"/></g>
<g><path style="opacity:0.031" fill="#de9fde" d="M 554.5,393.5 C 555.833,394.167 555.833,394.167 554.5,393.5 Z"/></g>
<g><path style="opacity:0.043" fill="#ff80ff" d="M 558.5,395.5 C 559.251,394.427 560.251,394.26 561.5,395C 560.552,395.483 559.552,395.649 558.5,395.5 Z"/></g>
<g><path style="opacity:0.031" fill="#e989e4" d="M 564.5,395.5 C 564.897,394.475 565.563,394.308 566.5,395C 565.906,395.464 565.239,395.631 564.5,395.5 Z"/></g>
<g><path style="opacity:0.008" fill="#ff66ff" d="M 567.5,396.5 C 567.897,395.475 568.563,395.308 569.5,396C 568.906,396.464 568.239,396.631 567.5,396.5 Z"/></g>
<g><path style="opacity:0.016" fill="#d994d9" d="M 739.5,395.5 C 741.337,395.639 741.67,396.306 740.5,397.5C 739.702,397.043 739.369,396.376 739.5,395.5 Z"/></g>
<g><path style="opacity:0.071" fill="#ff90fa" d="M 598.5,397.5 C 599.376,397.369 600.043,397.702 600.5,398.5C 598.192,399.873 597.525,399.54 598.5,397.5 Z"/></g>
<g><path style="opacity:0.004" fill="#ff3bff" d="M 607.5,398.5 C 608.922,398.709 610.255,399.209 611.5,400C 609.537,400.844 608.204,400.344 607.5,398.5 Z"/></g>
<g><path style="opacity:0.008" fill="#fe80ff" d="M 739.5,401.5 C 740.833,402.167 740.833,402.167 739.5,401.5 Z"/></g>
<g><path style="opacity:0.018" fill="#ff9cff" d="M 646.5,402.5 C 648.337,402.639 648.67,403.306 647.5,404.5C 646.702,404.043 646.369,403.376 646.5,402.5 Z"/></g>
<g><path style="opacity:0.067" fill="#fe96ef" d="M 650.5,403.5 C 651.833,404.167 651.833,404.167 650.5,403.5 Z"/></g>
<g><path style="opacity:0.012" fill="#feaafe" d="M 654.5,404.5 C 655.833,405.167 655.833,405.167 654.5,404.5 Z"/></g>
<g><path style="opacity:0.024" fill="#ff66ff" d="M 738.5,407.5 C 738.897,406.475 739.563,406.308 740.5,407C 739.906,407.464 739.239,407.631 738.5,407.5 Z"/></g>
<g><path style="opacity:0.027" fill="#ffb8ff" d="M 686.5,406.5 C 687.525,406.897 687.692,407.563 687,408.5C 686.536,407.906 686.369,407.239 686.5,406.5 Z"/></g>
<g><path style="opacity:0.012" fill="#ff8fff" d="M 692.5,408.5 C 693.386,407.224 694.386,407.224 695.5,408.5C 694.767,409.087 693.767,409.087 692.5,408.5 Z"/></g>
<g><path style="opacity:0.02" fill="#ed82eb" d="M 699.5,407.5 C 700.043,407.56 700.376,407.893 700.5,408.5C 699.635,409.583 698.635,409.749 697.5,409C 698.416,408.722 699.082,408.222 699.5,407.5 Z"/></g>
<g><path style="opacity:0.008" fill="#fe80ff" d="M 701.5,408.5 C 702.833,409.167 702.833,409.167 701.5,408.5 Z"/></g>
<g><path style="opacity:0.043" fill="#ae64ad" d="M 705.5,410.5 C 706.251,409.427 707.251,409.26 708.5,410C 707.552,410.483 706.552,410.649 705.5,410.5 Z"/></g>
<g><path style="opacity:0.082" fill="#f695f6" d="M 710.5,410.5 C 711.251,409.427 712.251,409.26 713.5,410C 712.552,410.483 711.552,410.649 710.5,410.5 Z"/></g>
<g><path style="opacity:0.075" fill="#f88af8" d="M 716.5,409.5 C 717.773,410.077 717.773,410.743 716.5,411.5C 715.537,411.03 715.537,410.363 716.5,409.5 Z"/></g>
<g><path style="opacity:0.012" fill="#ff44ff" d="M 718.5,411.5 C 718.897,410.475 719.563,410.308 720.5,411C 719.906,411.464 719.239,411.631 718.5,411.5 Z"/></g>
<g><path style="opacity:0.067" fill="#df82de" d="M 723.5,411.5 C 724.386,410.224 725.386,410.224 726.5,411.5C 725.575,412.562 724.575,412.562 723.5,411.5 Z"/></g>
<g><path style="opacity:0.027" fill="#e6a0e6" d="M 728.5,412.5 C 728.897,411.475 729.563,411.308 730.5,412C 729.906,412.464 729.239,412.631 728.5,412.5 Z"/></g>
<g><path style="opacity:0.047" fill="#e995e9" d="M 732.5,411.5 C 733.833,412.167 733.833,412.167 732.5,411.5 Z"/></g>
<g><path style="opacity:0.008" fill="#fb8dfb" d="M 738.5,410.5 C 739.404,411.209 739.737,412.209 739.5,413.5C 738.448,413.649 737.448,413.483 736.5,413C 737.756,412.583 738.423,411.75 738.5,410.5 Z"/></g>
<g><path style="opacity:0.995" fill="#90a6b3" d="M 577.5,414.5 C 581.833,417.669 586.5,420.336 591.5,422.5C 593.922,423.692 594.922,425.692 594.5,428.5C 594.333,429.833 594.167,431.167 594,432.5C 593.617,433.056 593.117,433.389 592.5,433.5C 584.405,430.702 577.072,426.702 570.5,421.5C 570.264,418.774 571.097,416.441 573,414.5C 574.414,413.587 575.914,413.587 577.5,414.5 Z"/></g>
<g><path style="opacity:0.994" fill="#7d8a93" d="M 637.5,417.5 C 637.5,419.833 637.5,422.167 637.5,424.5C 643.184,424.743 648.851,425.243 654.5,426C 655.738,426.69 655.738,427.19 654.5,427.5C 649.239,427.663 643.906,427.33 638.5,426.5C 633.579,426.941 628.912,427.608 624.5,428.5C 623.566,427.432 623.232,426.099 623.5,424.5C 623.557,423.391 623.89,422.391 624.5,421.5C 624.833,420.5 625.5,419.833 626.5,419.5C 630.101,418.537 633.767,417.87 637.5,417.5 Z"/></g>
<g><path style="opacity:1" fill="#96a9b5" d="M 648.5,418.5 C 650.23,419.026 651.564,420.026 652.5,421.5C 655.331,422.998 656.998,425.331 657.5,428.5C 656.209,428.737 655.209,428.404 654.5,427.5C 655.738,427.19 655.738,426.69 654.5,426C 648.851,425.243 643.184,424.743 637.5,424.5C 637.5,422.167 637.5,419.833 637.5,417.5C 637.917,416.876 638.584,416.543 639.5,416.5C 642.42,417.586 645.42,418.252 648.5,418.5 Z"/></g>
<g><path style="opacity:0.092" fill="#010000" d="M 591.5,419.5 C 596.532,421.37 601.865,422.037 607.5,421.5C 610.175,426.504 614.175,430.171 619.5,432.5C 619.769,436.764 619.936,441.097 620,445.5C 621.419,446.46 622.919,447.293 624.5,448C 629.256,448.344 633.923,449.178 638.5,450.5C 642.473,449.978 646.307,448.978 650,447.5C 653.489,449.052 656.656,448.718 659.5,446.5C 662.203,445.274 663.537,443.107 663.5,440C 662.997,436.991 661.997,434.158 660.5,431.5C 663.679,430.079 666.679,428.412 669.5,426.5C 676.307,427.653 682.473,430.319 688,434.5C 689.301,436.365 689.635,438.365 689,440.5C 683.03,445.4 676.197,448.567 668.5,450C 649.358,453.853 630.024,455.353 610.5,454.5C 592.71,455.076 575.043,453.909 557.5,451C 550.953,449.626 544.62,447.626 538.5,445C 531.468,441.521 530.801,437.187 536.5,432C 540.411,430.209 544.411,428.709 548.5,427.5C 547.737,430.141 547.57,432.808 548,435.5C 549.507,436.505 550.673,437.838 551.5,439.5C 556.201,441.036 561.034,442.369 566,443.5C 574.248,439.949 582.748,437.449 591.5,436C 592.252,435.329 592.586,434.496 592.5,433.5C 593.117,433.389 593.617,433.056 594,432.5C 594.167,431.167 594.333,429.833 594.5,428.5C 594.922,425.692 593.922,423.692 591.5,422.5C 591.5,421.5 591.5,420.5 591.5,419.5 Z"/></g>
<g><path style="opacity:0.078" fill="#1b0f07" d="M 618.5,421.5 C 620.5,421.5 622.5,421.5 624.5,421.5C 623.89,422.391 623.557,423.391 623.5,424.5C 621.566,423.89 619.899,422.89 618.5,421.5 Z"/></g>
<g><path style="opacity:0.984" fill="#b4642a" d="M 570.5,421.5 C 577.072,426.702 584.405,430.702 592.5,433.5C 592.586,434.496 592.252,435.329 591.5,436C 582.748,437.449 574.248,439.949 566,443.5C 561.034,442.369 556.201,441.036 551.5,439.5C 550.673,437.838 549.507,436.505 548,435.5C 547.57,432.808 547.737,430.141 548.5,427.5C 549.441,423.619 551.774,420.953 555.5,419.5C 560.618,418.862 565.618,419.529 570.5,421.5 Z"/></g>
<g><path style="opacity:1" fill="#e7b669" d="M 557.5,421.5 C 558.833,421.5 560.167,421.5 561.5,421.5C 560.964,426.31 559.797,430.977 558,435.5C 556.301,436.406 554.467,436.739 552.5,436.5C 551.987,430.706 553.654,425.706 557.5,421.5 Z"/></g>
<g><path style="opacity:1" fill="#e6b568" d="M 565.5,422.5 C 568.893,422.375 570.226,424.042 569.5,427.5C 568.979,431.231 568.146,434.898 567,438.5C 563.587,440.037 561.754,438.871 561.5,435C 561.836,430.478 563.17,426.312 565.5,422.5 Z"/></g>
<g><path style="opacity:1" fill="#c36c2e" d="M 675.5,413.5 C 674.838,418.488 672.838,422.821 669.5,426.5C 666.679,428.412 663.679,430.079 660.5,431.5C 661.997,434.158 662.997,436.991 663.5,440C 663.537,443.107 662.203,445.274 659.5,446.5C 657.143,446.663 654.81,446.497 652.5,446C 651.944,445.617 651.611,445.117 651.5,444.5C 657.076,445.749 659.743,443.583 659.5,438C 659.084,431.009 656.084,429.175 650.5,432.5C 649.732,431.737 649.232,430.737 649,429.5C 648.517,430.448 648.351,431.448 648.5,432.5C 647.684,430.856 646.35,429.69 644.5,429C 640.683,427.977 637.183,428.477 634,430.5C 633.501,434.486 633.334,438.486 633.5,442.5C 632.612,439.517 631.946,436.35 631.5,433C 631.316,431.624 630.649,430.791 629.5,430.5C 628.07,430.421 626.736,430.754 625.5,431.5C 624.482,433.594 623.482,435.594 622.5,437.5C 622.682,435.409 622.348,433.409 621.5,431.5C 622.34,430.265 623.34,429.265 624.5,428.5C 628.912,427.608 633.579,426.941 638.5,426.5C 643.906,427.33 649.239,427.663 654.5,427.5C 655.209,428.404 656.209,428.737 657.5,428.5C 656.998,425.331 655.331,422.998 652.5,421.5C 659.873,423.266 665.54,420.932 669.5,414.5C 671.565,414.483 673.565,414.15 675.5,413.5 Z"/></g>
<g><path style="opacity:1" fill="#e8b768" d="M 648.5,432.5 C 648.811,436.68 648.145,440.68 646.5,444.5C 642.892,445.593 639.225,445.76 635.5,445C 634.619,444.292 633.953,443.458 633.5,442.5C 633.334,438.486 633.501,434.486 634,430.5C 637.183,428.477 640.683,427.977 644.5,429C 646.35,429.69 647.684,430.856 648.5,432.5 Z"/></g>
<g><path style="opacity:1" fill="#e7b667" d="M 651.5,444.5 C 651.605,440.452 651.272,436.452 650.5,432.5C 656.084,429.175 659.084,431.009 659.5,438C 659.743,443.583 657.076,445.749 651.5,444.5 Z"/></g>
<g><path style="opacity:0.978" fill="#a95b24" d="M 618.5,398.5 C 621.931,400.348 623.597,403.348 623.5,407.5C 621.039,409.153 618.872,411.153 617,413.5C 616.572,416.322 617.072,418.988 618.5,421.5C 619.899,422.89 621.566,423.89 623.5,424.5C 623.232,426.099 623.566,427.432 624.5,428.5C 623.34,429.265 622.34,430.265 621.5,431.5C 622.348,433.409 622.682,435.409 622.5,437.5C 621.167,443.5 623.5,445.833 629.5,444.5C 629.5,439.833 629.5,435.167 629.5,430.5C 630.649,430.791 631.316,431.624 631.5,433C 631.946,436.35 632.612,439.517 633.5,442.5C 633.953,443.458 634.619,444.292 635.5,445C 639.225,445.76 642.892,445.593 646.5,444.5C 648.145,440.68 648.811,436.68 648.5,432.5C 648.351,431.448 648.517,430.448 649,429.5C 649.232,430.737 649.732,431.737 650.5,432.5C 651.272,436.452 651.605,440.452 651.5,444.5C 651.611,445.117 651.944,445.617 652.5,446C 654.81,446.497 657.143,446.663 659.5,446.5C 656.656,448.718 653.489,449.052 650,447.5C 646.307,448.978 642.473,449.978 638.5,450.5C 633.923,449.178 629.256,448.344 624.5,448C 622.919,447.293 621.419,446.46 620,445.5C 619.936,441.097 619.769,436.764 619.5,432.5C 614.175,430.171 610.175,426.504 607.5,421.5C 605.918,416.146 606.751,411.146 610,406.5C 612.762,403.565 615.595,400.899 618.5,398.5 Z"/></g>
<g><path style="opacity:1" fill="#e3b05f" d="M 629.5,430.5 C 629.5,435.167 629.5,439.833 629.5,444.5C 623.5,445.833 621.167,443.5 622.5,437.5C 623.482,435.594 624.482,433.594 625.5,431.5C 626.736,430.754 628.07,430.421 629.5,430.5 Z"/></g>
<g><path style="opacity:0.961" fill="#ff2100" d="M 247.5,456.5 C 276.756,453.436 292.756,466.436 295.5,495.5C 294.486,521.013 281.319,534.347 256,535.5C 237.984,535.826 225.984,527.492 220,510.5C 214.377,490.115 219.877,473.615 236.5,461C 240.266,459.441 243.932,457.941 247.5,456.5 Z M 254.5,470.5 C 265.03,470.86 271.53,476.193 274,486.5C 276.997,498.375 274.497,508.875 266.5,518C 254.442,523.98 245.609,520.813 240,508.5C 236.562,497.333 237.896,486.666 244,476.5C 247.069,473.554 250.569,471.554 254.5,470.5 Z"/></g>
<g><path style="opacity:1" fill="#2a2522" d="M 633.5,456.5 C 639.5,456.5 645.5,456.5 651.5,456.5C 651.5,483.833 651.5,511.167 651.5,538.5C 645.5,538.5 639.5,538.5 633.5,538.5C 633.5,511.167 633.5,483.833 633.5,456.5 Z"/></g>
<g><path style="opacity:0.991" fill="#2a2522" d="M 573.5,460.5 C 590.167,460.5 606.833,460.5 623.5,460.5C 623.5,465.5 623.5,470.5 623.5,475.5C 613.167,475.5 602.833,475.5 592.5,475.5C 592.5,481.167 592.5,486.833 592.5,492.5C 602.167,492.5 611.833,492.5 621.5,492.5C 621.5,497.5 621.5,502.5 621.5,507.5C 611.833,507.5 602.167,507.5 592.5,507.5C 592.5,517.833 592.5,528.167 592.5,538.5C 586.167,538.5 579.833,538.5 573.5,538.5C 573.5,512.5 573.5,486.5 573.5,460.5 Z"/></g>
<g><path style="opacity:0.99" fill="#2a2522" d="M 745.5,465.5 C 747.45,470.735 748.117,476.402 747.5,482.5C 751.5,482.5 755.5,482.5 759.5,482.5C 759.5,486.833 759.5,491.167 759.5,495.5C 755.5,495.5 751.5,495.5 747.5,495.5C 747.334,504.173 747.5,512.84 748,521.5C 748.833,522.333 749.667,523.167 750.5,524C 753.482,524.498 756.482,524.665 759.5,524.5C 760.074,529.648 759.407,534.482 757.5,539C 749.441,540.414 741.775,539.414 734.5,536C 731.333,532.845 729.499,529.012 729,524.5C 728.5,514.839 728.334,505.172 728.5,495.5C 725.833,495.5 723.167,495.5 720.5,495.5C 720.5,491.167 720.5,486.833 720.5,482.5C 723.167,482.5 725.833,482.5 728.5,482.5C 728.5,478.167 728.5,473.833 728.5,469.5C 734.397,468.658 740.064,467.324 745.5,465.5 Z"/></g>
<g><path style="opacity:0.96" fill="#ff2100" d="M 420.5,477.5 C 433.028,474.712 441.861,479.045 447,490.5C 448.432,505.108 448.932,519.775 448.5,534.5C 442.167,534.5 435.833,534.5 429.5,534.5C 429.667,522.495 429.5,510.495 429,498.5C 428.109,494.438 425.609,492.438 421.5,492.5C 417.497,492.249 414.664,493.916 413,497.5C 411.606,509.78 411.106,522.114 411.5,534.5C 405.5,534.5 399.5,534.5 393.5,534.5C 393.719,516.15 393.386,497.817 392.5,479.5C 398.167,479.5 403.833,479.5 409.5,479.5C 409.338,481.527 409.505,483.527 410,485.5C 412.806,481.853 416.306,479.186 420.5,477.5 Z"/></g>
<g><path style="opacity:0.956" fill="#ff2100" d="M 479.5,477.5 C 504.832,475.332 516.166,486.832 513.5,512C 501.505,512.5 489.505,512.667 477.5,512.5C 478.006,517.274 480.673,520.107 485.5,521C 493.103,522.49 500.603,521.99 508,519.5C 509.476,523.356 510.642,527.356 511.5,531.5C 508.512,533.552 505.179,534.719 501.5,535C 494.5,535.667 487.5,535.667 480.5,535C 466.239,531.731 458.905,522.731 458.5,508C 458.989,493.145 465.989,482.978 479.5,477.5 Z M 484.5,489.5 C 492.35,489.018 496.35,492.684 496.5,500.5C 489.825,500.666 483.158,500.5 476.5,500C 477.637,495.177 480.304,491.677 484.5,489.5 Z"/></g>
<g><path style="opacity:0.964" fill="#ff2100" d="M 549.5,477.5 C 552.833,477.5 556.167,477.5 559.5,477.5C 559.5,483.167 559.5,488.833 559.5,494.5C 555.818,494.335 552.152,494.501 548.5,495C 546,496.167 544.167,498 543,500.5C 541.644,511.785 541.144,523.119 541.5,534.5C 535.5,534.5 529.5,534.5 523.5,534.5C 523.719,516.15 523.386,497.817 522.5,479.5C 528.167,479.5 533.833,479.5 539.5,479.5C 539.337,481.857 539.503,484.19 540,486.5C 542.406,482.592 545.572,479.592 549.5,477.5 Z"/></g>
<g><path style="opacity:0.952" fill="#ff2100" d="M 299.5,479.5 C 305.868,479.17 312.202,479.504 318.5,480.5C 321.318,492.757 323.818,505.09 326,517.5C 329.17,504.819 332.337,492.153 335.5,479.5C 340.833,479.5 346.167,479.5 351.5,479.5C 354.328,491.48 357.161,503.48 360,515.5C 362.805,503.942 365.471,492.275 368,480.5C 374.076,479.524 380.242,479.19 386.5,479.5C 381.242,497.609 375.575,515.609 369.5,533.5C 363.278,534.809 357.111,534.809 351,533.5C 347.922,522.934 345.256,512.267 343,501.5C 340.312,512.251 337.312,522.917 334,533.5C 327.924,534.476 321.758,534.81 315.5,534.5C 310.167,516.167 304.833,497.833 299.5,479.5 Z"/></g>
<g><path style="opacity:0.987" fill="#2a2522" d="M 677.5,480.5 C 684.175,480.334 690.842,480.5 697.5,481C 708.445,484.353 713.945,491.853 714,503.5C 714.5,515.162 714.667,526.829 714.5,538.5C 708.833,538.5 703.167,538.5 697.5,538.5C 697.762,537.022 697.429,535.689 696.5,534.5C 687.126,540.503 677.459,541.003 667.5,536C 658.965,525.357 659.632,515.357 669.5,506C 677.637,501.8 686.303,499.8 695.5,500C 694.931,497.097 693.265,495.097 690.5,494C 683.043,492.61 676.043,493.776 669.5,497.5C 667.94,493.768 666.607,489.934 665.5,486C 669.218,483.486 673.218,481.653 677.5,480.5 Z M 687.5,512.5 C 690.167,512.5 692.833,512.5 695.5,512.5C 696.655,522.68 692.322,527.013 682.5,525.5C 678.887,519.066 680.554,514.733 687.5,512.5 Z"/></g>
<g><path style="opacity:0.98" fill="#2a2522" d="M 782.5,480.5 C 790.945,480.098 799.279,480.765 807.5,482.5C 807.276,487.397 806.109,492.064 804,496.5C 798.808,493.796 793.308,492.963 787.5,494C 784.833,496 784.833,498 787.5,500C 794.526,502.595 801.026,506.095 807,510.5C 813.873,524.838 809.707,534.338 794.5,539C 788.167,539.667 781.833,539.667 775.5,539C 771.825,538.443 768.492,537.11 765.5,535C 767.046,530.981 768.046,526.815 768.5,522.5C 773.518,524.338 778.685,525.671 784,526.5C 786.59,526.624 788.923,525.958 791,524.5C 791.798,522.741 791.631,521.074 790.5,519.5C 781.985,517.329 774.818,512.996 769,506.5C 765.313,493.539 769.813,484.873 782.5,480.5 Z"/></g>
<g><path style="opacity:0.988" fill="#2a2522" d="M 871.5,480.5 C 877.842,480.334 884.175,480.5 890.5,481C 892.101,481.273 893.601,481.773 895,482.5C 894.79,487.339 893.624,492.006 891.5,496.5C 881.141,492.119 873.308,494.785 868,504.5C 865.412,517.006 870.412,524.006 883,525.5C 886.501,524.766 890.001,524.1 893.5,523.5C 893.795,527.898 894.462,532.231 895.5,536.5C 893.78,537.934 891.78,538.767 889.5,539C 881.436,539.863 873.436,539.53 865.5,538C 853.863,532.567 847.863,523.4 847.5,510.5C 848.551,494.796 856.551,484.796 871.5,480.5 Z"/></g>
<g><path style="opacity:0.985" fill="#2a2522" d="M 922.5,480.5 C 950.303,478.136 962.803,490.803 960,518.5C 955.228,533.076 945.062,540.076 929.5,539.5C 911.047,538.716 901.047,529.049 899.5,510.5C 899.989,494.804 907.656,484.804 922.5,480.5 Z M 927.5,493.5 C 932.347,492.84 936.181,494.507 939,498.5C 943.154,508.131 941.987,516.965 935.5,525C 927.378,527.852 922.211,525.019 920,516.5C 917.456,506.968 919.956,499.301 927.5,493.5 Z"/></g>
<g><path style="opacity:0.987" fill="#2a2522" d="M 997.5,480.5 C 1007.07,478.387 1014.91,481.054 1021,488.5C 1030.04,479.626 1040.2,478.126 1051.5,484C 1054.85,487.532 1057.02,491.699 1058,496.5C 1058.5,510.496 1058.67,524.496 1058.5,538.5C 1052.5,538.5 1046.5,538.5 1040.5,538.5C 1040.67,526.495 1040.5,514.495 1040,502.5C 1038.26,495.47 1034.09,493.636 1027.5,497C 1026.3,497.903 1025.47,499.069 1025,500.5C 1024.5,513.162 1024.33,525.829 1024.5,538.5C 1018.17,538.5 1011.83,538.5 1005.5,538.5C 1005.67,526.162 1005.5,513.829 1005,501.5C 1003.54,495.941 1000.04,494.108 994.5,496C 992.19,497.637 990.69,499.804 990,502.5C 989.5,514.495 989.333,526.495 989.5,538.5C 983.5,538.5 977.5,538.5 971.5,538.5C 971.722,519.817 971.389,501.15 970.5,482.5C 975.875,482.172 981.208,482.505 986.5,483.5C 987.098,484.795 987.598,486.128 988,487.5C 990.825,484.524 993.992,482.191 997.5,480.5 Z"/></g>
<g><path style="opacity:0.98" fill="#2a2522" d="M 826.5,517.5 C 837.115,517.714 841.282,523.047 839,533.5C 837.833,536 836,537.833 833.5,539C 821.046,540.881 816.213,535.714 819,523.5C 820.707,520.41 823.207,518.41 826.5,517.5 Z"/></g>
</svg>
